<svg width="163" height="46" viewBox="0 0 163 46" fill="none" xmlns="http://www.w3.org/2000/svg">
<g id="Group 1198">
<path id="Vector" d="M161.951 29.9948C161.938 29.9877 161.927 29.9778 161.918 29.9658C161.91 29.9538 161.904 29.9401 161.902 29.9257C161.698 28.7073 161.053 27.606 160.09 26.8303C160.078 26.8209 160.069 26.809 160.062 26.7955C160.056 26.782 160.052 26.7673 160.052 26.7523V19.5394C160.054 17.0446 159.511 14.5793 158.46 12.3158C158.265 11.8936 158.053 11.4789 157.825 11.0716C157.819 11.0597 157.814 11.0465 157.813 11.0329C157.811 11.0192 157.813 11.0054 157.817 10.9923C157.821 10.9792 157.828 10.9671 157.837 10.9567C157.846 10.9463 157.857 10.9378 157.869 10.9318L157.985 10.8743C158.668 10.3272 158.18 9.62379 158.18 9.62379L158.185 9.62769C157.252 8.16652 156.131 6.83424 154.85 5.66513C152.892 3.87576 150.616 2.46828 148.14 1.51551C142.876 -0.505169 137.048 -0.505169 131.783 1.51551C129.307 2.46818 127.031 3.87566 125.073 5.66513C123.813 6.81438 122.707 8.12118 121.783 9.55315H121.785C121.324 10.2181 121.706 10.7759 121.818 10.8149L122.053 10.9308C122.066 10.9368 122.077 10.9453 122.086 10.9557C122.095 10.9661 122.101 10.9783 122.105 10.9914C122.109 11.0045 122.111 11.0183 122.109 11.0319C122.108 11.0455 122.104 11.0587 122.097 11.0707C121.869 11.4769 121.658 11.8917 121.462 12.3149C120.411 14.5787 119.868 17.0442 119.87 19.5394V26.7523C119.87 26.7673 119.866 26.782 119.86 26.7955C119.853 26.809 119.844 26.8209 119.832 26.8303C118.869 27.606 118.224 28.7073 118.02 29.9257C118.017 29.94 118.011 29.9537 118.003 29.9656C117.995 29.9776 117.984 29.9875 117.971 29.9948C117.133 30.5112 116.924 31.4373 116.924 32.4935V37.2823C116.924 38.3394 117.133 39.265 117.973 39.7824C117.986 39.7899 117.996 39.8 118.004 39.812C118.012 39.8239 118.017 39.8374 118.02 39.8515C118.218 41.0312 118.829 42.1026 119.743 42.8753C120.658 43.6481 121.817 44.0722 123.015 44.0723H123.463H123.472C123.581 44.0726 123.688 44.0508 123.788 44.0085C123.887 43.9661 123.977 43.9039 124.052 43.8258C124.208 43.6709 124.296 43.4606 124.296 43.2412H124.301L124.307 26.5316C124.307 26.3145 124.222 26.106 124.07 25.9511C123.917 25.7962 123.71 25.7073 123.492 25.7035H123.017C122.607 25.703 122.2 25.752 121.802 25.8496C121.787 25.8534 121.772 25.8537 121.756 25.8506C121.741 25.8474 121.727 25.841 121.715 25.8316C121.703 25.8222 121.693 25.8102 121.686 25.7964C121.679 25.7827 121.675 25.7676 121.675 25.7522V19.5394C121.673 17.3049 122.16 15.0968 123.102 13.0695C123.292 12.657 123.5 12.2536 123.725 11.8594C123.737 11.8369 123.758 11.8201 123.783 11.8125C123.808 11.8049 123.835 11.807 123.858 11.8184L124.053 11.9129C124.864 12.1736 125.203 11.4677 125.203 11.4677L125.207 11.4628C125.922 10.3908 126.766 9.40934 127.718 8.53986C129.318 7.07859 131.178 5.92983 133.203 5.15313C137.557 3.48511 142.375 3.48511 146.729 5.15313C148.753 5.93021 150.613 7.07893 152.214 8.53986C153.192 9.43309 154.056 10.4446 154.783 11.551C155.293 12.1814 155.95 11.8725 155.95 11.8725L155.936 11.8847L156.071 11.8184C156.094 11.807 156.121 11.8048 156.146 11.8124C156.171 11.82 156.192 11.8368 156.204 11.8594C156.429 12.254 156.637 12.6573 156.828 13.0695C157.768 15.0971 158.253 17.3051 158.25 19.5394V25.7551C158.25 25.7705 158.246 25.7856 158.239 25.7994C158.232 25.8131 158.222 25.8251 158.21 25.8345C158.198 25.8439 158.184 25.8504 158.169 25.8535C158.154 25.8566 158.138 25.8563 158.123 25.8525C157.726 25.755 157.318 25.7059 156.909 25.7064L156.469 25.7132C156.359 25.7121 156.25 25.7331 156.148 25.7749C156.045 25.8168 155.953 25.8786 155.875 25.9568C155.713 26.1185 155.617 26.3012 155.617 26.5131L155.62 43.2378C155.62 43.3465 155.642 43.4541 155.683 43.5544C155.725 43.6547 155.787 43.7458 155.864 43.8224C155.94 43.9012 156.03 43.964 156.131 44.0071C156.232 44.0501 156.34 44.0724 156.449 44.0728H156.911C158.109 44.0721 159.268 43.6475 160.182 42.8743C161.096 42.1011 161.706 41.0294 161.904 39.8496C161.907 39.8352 161.912 39.8216 161.921 39.8096C161.929 39.7977 161.94 39.7877 161.953 39.7804C162.793 39.265 163 38.3394 163 37.2832V32.4935C163 31.4363 162.791 30.5103 161.951 29.9939" fill="#F155BD"/>
<g id="Group 1197">
<path id="Vector_2" d="M22.9481 33.8607C22.9637 32.302 22.8696 30.7441 22.6664 29.1986C22.5119 28.0492 22.2645 26.9142 21.9265 25.8048C21.6626 24.9355 21.2968 24.1005 20.8366 23.3173C20.4191 22.6175 20.0109 21.9452 19.6121 21.3002L18.4452 19.3759C18.0369 18.6884 17.6904 17.966 17.4096 17.2172C17.0747 16.3168 16.8258 15.3866 16.6661 14.4392C16.4631 13.1902 16.3689 11.9259 16.3845 10.6606V4.48537C16.3928 4.01288 16.4574 3.54307 16.5769 3.08588C16.7111 2.5523 16.9601 2.05442 17.3064 1.62692C17.7144 1.13614 18.2265 0.742337 18.8056 0.474081C19.4459 0.15803 20.278 0 21.3019 0C22.3259 0 23.158 0.15803 23.7983 0.474081C24.3774 0.742337 24.8895 1.13614 25.2975 1.62692C25.6438 2.05442 25.8928 2.5523 26.027 3.08588C26.1465 3.54307 26.2111 4.01288 26.2194 4.48537V13.4404H22.9481V4.48537C22.9576 4.14291 22.9103 3.80124 22.8081 3.47424C22.734 3.24256 22.6064 3.0316 22.4355 2.85846C22.2865 2.71733 22.1069 2.61255 21.9107 2.55232C21.5183 2.4334 21.0995 2.4334 20.7072 2.55232C20.5106 2.61184 20.3309 2.71671 20.1823 2.85846C20.0115 3.03058 19.8843 3.24113 19.8115 3.47249C19.7078 3.79857 19.6598 4.13984 19.6698 4.48188V9.46231C19.6698 11.3866 19.836 12.9966 20.1684 14.2923C20.4542 15.4661 20.8714 16.604 21.4121 17.6843C21.9113 18.6465 22.4145 19.5375 22.9218 20.3573L24.4963 22.9027C25.0784 23.8729 25.5068 24.9274 25.7663 26.0288C26.0684 27.2347 26.22 28.7356 26.2211 30.5316V40.538C26.2211 40.7444 26.1949 41.1153 26.1442 41.6541C26.0792 42.2364 25.8965 42.7994 25.6071 43.309C25.2526 43.923 24.7505 44.4389 24.1464 44.8099C23.4805 45.2473 22.5329 45.4653 21.3037 45.4642C20.0745 45.463 19.1269 45.2455 18.461 44.8117C17.9092 44.4747 17.4422 44.0155 17.0959 43.4696C16.7495 42.9237 16.5331 42.3056 16.4632 41.6628C16.4119 41.1264 16.3862 40.7555 16.3862 40.5502V28.3134H19.6645V40.5467C19.6645 40.7508 19.6733 40.994 19.6908 41.2762C19.7051 41.5527 19.7642 41.8251 19.8657 42.0827C19.9684 42.3387 20.136 42.5636 20.352 42.7352C20.6369 42.9113 20.9653 43.0045 21.3002 43.0045C21.6351 43.0045 21.9634 42.9113 22.2483 42.7352C22.4638 42.5631 22.6313 42.3384 22.7347 42.0827C22.8362 41.8251 22.8953 41.5527 22.9096 41.2762C22.9271 40.9946 22.9358 40.7514 22.9358 40.545L22.9481 33.8607Z" fill="#F155BD"/>
<path id="Vector_3" d="M3.27831 0.388367V42.1859H6.55661V44.6437H0V0.388367H3.27831Z" fill="#F155BD"/>
<path id="Vector_4" d="M13.5244 0.388367H10.2461V44.6437H13.5244V0.388367Z" fill="#F155BD"/>
<path id="Vector_5" d="M37.7004 0.388367V2.84797H34.4221V44.6437H31.1438V2.84797H27.8655V0.388367H37.7004Z" fill="#F155BD"/>
<path id="Vector_6" d="M47.5355 2.84797H43.4368V20.0582H46.7151V22.5161H43.4368V42.1859H47.5355V44.6455H40.1584V0.388367H47.5355V2.84797Z" fill="#F155BD"/>
<path id="Vector_7" d="M59.8283 44.6437H56.55L52.453 11.7977V44.6437H49.9934V0.388367H53.2717L57.3705 33.2344V0.388367H59.8283V44.6437Z" fill="#F155BD"/>
<path id="Vector_8" d="M72.121 44.6437H68.8427L68.4334 33.9901H66L65.5627 44.6437H62.2861L64.7457 0.384857H69.6632L72.121 44.6437ZM68.024 21.6956L67.2036 2.02751L66.3849 21.6956L66 31.5305H68.4334L68.024 21.6956Z" fill="#F155BD"/>
<path id="Vector_9" d="M84.4155 40.5467C84.4155 41.5695 84.2277 42.3591 83.8522 42.9154C83.489 43.4599 82.9711 43.8834 82.3652 44.1312C81.6964 44.3999 80.9863 44.5514 80.266 44.579C79.4799 44.6233 78.6776 44.6449 77.8589 44.6437H74.5806V0.384857H77.8589C78.8828 0.384857 79.8007 0.405847 80.6124 0.447832C81.3211 0.468554 82.0198 0.620405 82.6731 0.895679C83.2296 1.14669 83.6851 1.57816 83.9659 2.12023C84.2645 2.6742 84.4143 3.46374 84.4155 4.48887V18.4208C84.4155 19.2372 84.2102 19.8693 83.7997 20.3171C83.3892 20.7649 82.7746 21.0979 81.9559 21.316C82.7723 21.5026 83.3869 21.818 83.7997 22.2624C84.2126 22.7067 84.4178 23.3382 84.4155 24.1569V40.5467ZM77.8589 20.0564H80.3167C80.4864 20.0677 80.6545 20.0181 80.7908 19.9165C80.9044 19.8175 80.9885 19.6892 81.034 19.5456C81.0875 19.3756 81.1175 19.199 81.1232 19.0208C81.1232 18.8249 81.1372 18.6255 81.1372 18.419V4.48536C81.1512 4.16016 81.0914 3.836 80.9622 3.53721C80.8466 3.31195 80.6506 3.13836 80.4129 3.05088C80.0871 2.93792 79.7449 2.87883 79.4001 2.87595C78.9825 2.85845 78.4665 2.84971 77.8519 2.84971L77.8589 20.0564ZM81.1319 24.1569C81.1319 23.9523 81.1319 23.7511 81.1179 23.5552C81.1123 23.377 81.0822 23.2004 81.0287 23.0304C80.9837 22.886 80.8995 22.7571 80.7856 22.6577C80.6489 22.5568 80.481 22.5073 80.3115 22.5178H77.8589V42.1859C78.4723 42.1859 78.9884 42.1771 79.4071 42.1596C79.752 42.1577 80.0943 42.0986 80.4199 41.9847C80.6583 41.8984 80.8547 41.7245 80.9692 41.4984C81.0986 41.2003 81.1584 40.8766 81.1442 40.552L81.1319 24.1569Z" fill="#F155BD"/>
<path id="Vector_10" d="M90.9719 0.388367V42.1859H94.2502V44.6437H87.6936V0.388367H90.9719Z" fill="#F155BD"/>
<path id="Vector_11" d="M104.904 2.84797H100.805V20.0582H104.083V22.5161H100.805V42.1859H104.904V44.6455H97.5269V0.388367H104.904V2.84797Z" fill="#F155BD"/>
</g>
</g>
</svg>
