<svg width="33" height="41" viewBox="0 0 33 41" fill="none" xmlns="http://www.w3.org/2000/svg">
<path id="Alabama (AL)" opacity="0.24" fill-rule="evenodd" clip-rule="evenodd" d="M0.594727 2.74432L0.950739 3.31248L1.66276 3.59656V28.0272L3.79884 39.3903H5.22289L5.93491 39.9585H6.29093V38.254L6.64694 36.5495L8.07099 37.4018L7.71498 38.5381L8.427 39.1062L9.85105 40.2425L10.9191 39.9585L10.5631 39.3903H11.2751L12.3431 38.254L11.9871 37.6858V36.5495L10.9191 36.2655L9.85105 35.4132L10.2071 33.9928L32.2798 32.0043L31.9238 31.1521L30.8558 30.2998L31.2118 27.4591L29.7878 26.0387V24.6183L30.4998 24.0501V22.6297L31.5678 21.7775L30.4998 21.4934V20.3571L29.4317 19.2208L28.0077 16.6641L21.5995 0.755783L0.594727 2.74432Z" fill="#43A5FF" stroke="white" stroke-linecap="round" stroke-linejoin="round"/>
</svg>
