<svg width="158" height="68" viewBox="0 0 158 68" fill="none" xmlns="http://www.w3.org/2000/svg">
<path id="Alaska (AK)" fill-rule="evenodd" clip-rule="evenodd" d="M123.892 40.1497L115.348 4.9241L114.636 5.20818L113.212 4.64002L112.144 4.07187H110.72L109.296 4.35594L108.584 4.64002H107.16L106.448 4.35594H104.668L103.244 4.07187L102.176 3.78779L101.108 3.21963L99.3275 3.78779L98.9715 3.50371L97.5474 4.07187L96.4794 3.78779V3.21963L95.4113 2.93556L96.1234 2.3674L94.3433 2.08332L92.9193 2.3674H91.8512L92.2072 1.79925L91.4952 1.23109L90.4272 2.65148L89.7151 1.79925L90.7832 1.23109L89.0031 0.37886L87.9351 1.23109L86.511 2.08332H84.375L83.3069 2.65148L82.2389 3.50371L80.8148 4.07187L80.1028 3.78779L78.3227 5.49225L77.2547 6.62856L76.8987 7.4808L75.8307 8.33303H73.6946L71.9145 8.04895L71.5585 9.46934L70.8465 10.0375L72.2705 11.4579L74.4066 13.1623L75.1186 14.2987L74.7626 15.1509L76.8987 16.0031H78.6788L79.0348 16.2872L78.3227 16.8553V17.7076H79.0348H80.1028L81.1708 17.9917V18.8439H80.1028L79.3908 17.9917L77.9667 18.2757L79.0348 18.5598L79.3908 19.412L78.6788 19.128L77.9667 19.9802L76.5427 19.6961L75.8307 19.412L74.0506 19.128L73.6946 18.5598L74.7626 17.4235L73.3386 17.1394L72.2705 17.7076H71.2025L70.4905 17.9917L70.8465 18.5598L69.4224 18.2757L67.6424 19.128L65.5063 19.412L66.2183 20.5484L68.7104 21.6847L67.6424 22.2528L67.9984 23.1051L67.6424 23.9573L69.0664 24.8095L70.8465 25.0936L71.9145 24.8095L73.6946 25.0936L74.0506 25.6617L75.1186 25.9458L75.8307 25.0936L77.6107 24.5254L78.6788 24.2414L79.3908 25.0936L78.6788 25.9458H77.6107L78.3227 26.7981L78.6788 28.5025L77.9667 29.6388L75.8307 29.9229L75.1186 29.0707L74.7626 29.9229L73.3386 30.7751H72.6265L71.5585 29.9229L70.4905 30.4911L69.4224 31.3433V32.4796L68.3544 32.7637L66.9303 34.1841V34.7522L65.8623 35.0363L66.5743 35.6045L65.8623 35.8885L66.2183 36.7408L66.5743 37.8771L67.2864 37.593L67.9984 38.4452L71.2025 39.2975V39.8656L70.4905 40.1497L69.7785 39.5815H69.0664L67.9984 39.0134L66.5743 39.8656L67.9984 41.286L69.0664 42.7064L70.1345 43.2745L71.9145 42.7064L72.9826 42.1382L73.3386 41.0019V42.1382L74.0506 44.1268L74.4066 44.979L73.6946 45.5472L74.0506 46.6835L73.3386 48.1039L74.4066 48.3879L77.6107 46.6835L77.9667 47.5357L79.0348 47.8198L80.8148 49.5242L81.5269 49.2402L81.1708 47.8198L82.2389 46.9676V48.3879L82.5949 48.9561L85.799 47.8198L86.511 47.2516L85.087 48.9561L84.019 50.3765L85.087 50.6606L84.019 50.9446V52.6491V53.5013L83.3069 53.2173L81.5269 54.3536L81.1708 54.9217L80.8148 56.058L80.1028 55.774L77.9667 56.6262L75.8307 57.7625L75.4746 58.6147L76.1867 59.467L75.1186 59.1829L73.6946 58.3307L71.5585 58.8988L69.7785 60.3192L68.3544 60.8873L67.6424 61.4555L66.2183 61.1714L65.1503 61.7396L64.0823 61.4555L63.3702 62.3077L63.0142 62.5918L63.3702 63.444L64.4383 63.16L65.1503 62.8759L66.5743 63.16L67.9984 62.0237H69.0664L69.7785 61.4555H70.8465L72.2705 60.3192L72.9826 59.751L73.6946 60.0351L72.9826 60.8873L74.4066 60.3192V61.1714L75.1186 61.7396L75.4746 61.1714L75.1186 60.3192L76.5427 59.751L78.3227 59.1829L80.1028 58.8988L81.1708 57.7625L81.8829 56.9103L84.019 56.3421L85.087 55.4899L86.511 55.2058L86.8671 54.0695L88.2911 52.9332L90.0712 52.365L90.7832 51.2287L92.5632 50.9446L92.9193 49.5242L94.6993 48.672L95.0553 48.1039L93.6313 47.2516L92.5632 47.5357L93.2753 46.1153L94.3433 44.979H95.4113L96.4794 43.5586L95.7674 42.7064L97.1914 42.1382L98.2594 40.7178L98.9715 39.5815H99.6835L100.752 38.7293H102.176L103.956 39.8656L102.176 40.1497L101.464 39.5815L100.04 41.0019H99.3275L99.6835 42.1382L98.6155 43.5586V44.979L99.3275 45.2631L100.396 44.6949L98.2594 46.1153V46.9676L100.04 46.6835L101.108 46.1153L102.176 44.979L104.668 43.2745L106.448 43.5586L107.16 41.8542L106.092 40.7178L107.16 39.0134L107.516 39.8656L109.296 39.5815L111.076 39.8656L112.856 40.7178L111.076 41.5701H113.924L114.992 40.4338V41.5701L117.128 42.1382L118.908 41.8542L121.044 41.5701H122.824L123.892 41.8542L125.672 42.4223L127.096 41.286L128.165 41.0019V42.1382L127.452 42.7064L130.657 43.5586L133.505 44.6949L135.285 45.5472L136.353 45.8312L137.777 45.2631L135.997 43.8427L137.421 43.2745L138.489 44.6949L139.557 44.979L140.269 45.2631L137.421 41.5701L140.981 44.4109L141.693 45.5472C141.693 45.5472 141.313 45.5472 140.981 45.5472C140.72 45.5472 139.913 45.5472 139.913 45.5472L137.777 45.8312L137.421 47.2516L138.845 48.3879L140.625 49.8083L142.761 51.5128L144.541 52.365L143.117 49.8083L141.337 48.1039L143.117 49.2402L144.541 47.5357L143.117 45.8312L144.897 46.3994L145.965 47.8198L147.033 48.672L145.253 48.9561L144.185 49.8083L145.609 51.5128L146.321 52.365L147.033 51.2287L148.457 49.8083L148.813 51.5128L148.101 53.5013L149.881 55.4899L151.305 56.6262L152.017 55.4899L153.441 55.774L152.373 54.3536L149.525 52.0809V50.9446L151.305 52.365L153.085 53.5013L154.865 54.9217V52.9332L156.645 54.9217L157.714 52.6491L156.645 50.9446L156.289 49.8083H154.865L151.661 48.9561H150.237L148.813 47.2516L144.185 43.8427L142.761 42.7064L140.981 42.1382L139.201 41.0019L137.777 39.5815L135.641 40.7178V42.4223L133.861 43.5586L133.149 42.4223L129.589 41.0019L128.521 40.4338V39.0134L126.74 39.5815L126.384 40.1497H124.96H123.892ZM1.78006 52.9332L1.06804 52.0809L0 51.7969V52.365L0.712025 52.6491L1.78006 52.9332ZM13.1725 61.1714V61.7396H13.8845L13.1725 61.1714ZM11.0364 59.751L10.3244 60.3192L9.61234 60.8873L11.3924 60.6033L11.0364 59.751ZM13.5285 62.5918L14.5965 63.7281L14.9525 64.2963L14.2405 64.0122L13.1725 62.8759L13.5285 62.5918ZM16.7326 62.3077H16.0206V62.8759L17.0886 62.5918L16.7326 62.3077ZM23.4968 65.1485L22.7848 64.5803H22.4288L22.7848 65.4326L23.4968 65.1485ZM28.837 66.2848H27.413L27.0569 65.4326L25.9889 66.0007L25.2769 66.5689H27.413L28.837 66.2848ZM37.0253 67.4211L35.9573 67.137L34.8892 66.853L35.2452 66.0007H33.8212L32.7531 66.5689L30.2611 66.2848L31.3291 66.853H33.4652L35.6012 67.4211H37.0253ZM44.5016 66.853L44.1455 67.4211H45.2136L44.5016 66.853ZM47.7057 66.5689H46.9936H46.6376L47.3497 67.137L47.7057 66.5689ZM53.0459 65.1485L51.9778 65.4326V66.0007H50.9098L50.1978 66.853L49.1297 67.4211L51.2658 66.853L51.9778 66.2848L53.7579 66.0007L53.0459 65.1485ZM57.318 64.0122H55.894V64.8644L55.5379 65.7167L54.1139 66.0007L54.8259 66.5689L56.606 66.2848L57.318 65.4326L58.7421 65.1485L58.03 64.5803L57.318 64.0122ZM60.5221 63.444L59.8101 64.0122L59.0981 63.7281L59.4541 64.5804L60.5221 64.2963L61.9462 64.8644L62.6582 64.2963L60.8781 64.0122L60.5221 63.444ZM97.1914 48.9561L96.8354 50.0924H98.6155L98.9715 50.6605L97.1914 50.9446L96.4794 51.5128H97.5474L97.1914 52.9332H97.9034L97.1914 53.7854L95.4113 53.2172L96.8354 54.0695H95.7674V54.6376L94.6993 55.4899H93.9873L92.9193 56.3421L93.2753 57.1943H91.4952L92.9193 55.7739L91.8512 55.4899L91.4952 54.3535L91.1392 53.5013L92.5632 52.9332L93.6313 53.5013L92.9193 52.0809H94.3433L94.6993 51.2287L96.1234 50.3765L97.1914 48.9561Z" fill="#43A5FF"/>
</svg>
