<svg width="55" height="51" viewBox="0 0 55 51" fill="none" xmlns="http://www.w3.org/2000/svg">
<path id="Arizona (AZ)" opacity="0.7" fill-rule="evenodd" clip-rule="evenodd" d="M28.516 2.66486C36.9364 3.38475 53.7772 4.54046 53.7772 4.54046L49.149 49.7088L32.0604 48.5725L1.44336 36.3571L1.79937 35.5049L2.5114 34.6527L2.86741 34.3686L3.93545 34.6527H4.29146L5.00348 33.5164V32.38L3.57943 32.096L3.22342 31.5278L3.57943 30.6756V28.9711H4.64747L5.3595 27.8348L6.07152 25.5622V24.994L6.78355 24.4259L7.13956 23.8577L8.56361 23.2896L9.63165 22.4373L7.85158 21.0169L7.49557 19.3125L6.42753 17.608V15.6195L7.13956 15.3354V14.1991L6.78355 12.7787L7.13956 11.9265L6.78355 10.5061L7.13956 9.93793L6.78355 9.0857L7.13956 7.94939L8.56361 7.38123L9.63165 7.94939L10.3437 7.66531L10.6997 8.80162H11.7677L12.8358 7.09716L13.9038 1.13153C13.9038 1.13153 23.6452 2.24844 28.516 2.66486Z" fill="#43A5FF" stroke="white" stroke-linecap="round" stroke-linejoin="round"/>
</svg>
