<svg width="43" height="32" viewBox="0 0 43 32" fill="none" xmlns="http://www.w3.org/2000/svg">
<path id="Arkansas (AR)" opacity="0.1" fill-rule="evenodd" clip-rule="evenodd" d="M3.68545 25.9482L2.97342 11.7443L1.19336 3.50608V3.222L37.1506 1.23346L38.2187 2.08569V2.65385L36.4386 4.64239L36.0826 4.92647V5.49462L41.0668 4.92647L41.7788 5.21054L42.1348 5.49462H41.0668V6.06277L41.4228 6.34685L39.6427 7.19908L39.9987 8.33539V8.90355H39.2867L38.9307 10.0399L38.5747 10.8921L39.2867 12.0284H38.2187L37.5066 13.1647V14.0169L36.4386 14.5851V15.4373H35.3706V17.994L34.3025 18.5622V19.1303L32.8785 20.2666L33.5905 20.8348L33.2345 21.1189L31.8104 21.687L32.1664 23.1074L31.0984 24.2437L31.8104 24.8119L31.0984 25.38L31.8104 25.9482V27.3686L32.5225 28.2208L31.8104 28.789V29.6412L7.60158 30.7775V26.5163L7.24557 26.2323H5.46551L5.1095 26.5163L4.39747 26.2323L3.68545 25.9482Z" fill="#43A5FF" stroke="white" stroke-linecap="round" stroke-linejoin="round"/>
</svg>
