<svg width="73" height="86" viewBox="0 0 73 86" fill="none" xmlns="http://www.w3.org/2000/svg">
<path id="California (CA)" opacity="0.45" fill-rule="evenodd" clip-rule="evenodd" d="M37.0979 6.53142L5.76879 1.41803V2.27026L5.05676 3.12249L5.76879 3.69065V6.24734L4.34474 8.51996V9.08812L3.98873 10.2244L4.34474 10.5085L3.2767 10.7926L2.92069 11.3607L2.20866 11.6448L1.14062 13.0652V14.4856L2.56468 16.1901L2.92069 16.7582L3.98873 18.4627V21.0194L2.92069 22.4398L3.2767 23.292L3.63271 25.2805L2.92069 25.5646L5.41278 28.9735L6.83683 30.1098V31.2462L7.54885 32.0984L8.26088 33.2347V33.8028L7.19284 32.6665V33.2347L8.61689 34.9392H8.9729L10.0409 35.7914L10.753 33.5188L11.821 33.2347L13.2451 34.371L13.9571 34.0869L14.6691 33.8028L15.0251 34.371L15.7371 34.6551H16.8052L17.8732 34.9392L18.9413 35.7914H18.5852L17.5172 35.2232L16.8052 35.5073L15.7371 35.2232L13.9571 34.6551L13.2451 34.9392L12.533 34.371L11.465 34.9392V35.2232L11.821 35.7914V36.3595L12.533 36.9277V38.064V38.9162L13.2451 39.2003L12.889 39.4844L11.821 38.9162L10.753 37.7799V37.2118V36.3595H10.0409L9.68493 36.9277L10.0409 37.4959L9.68493 38.3481L10.0409 39.4844L9.68493 40.6207L10.753 42.3252L11.821 43.1774L13.2451 43.4615L13.9571 44.5978L13.6011 45.7341L12.533 46.3023H12.177V48.5749L12.533 49.143L13.6011 49.9953L13.9571 51.1316L14.6691 51.4156V52.552L15.3811 53.4042V54.2564L16.8052 54.8246L17.1612 55.9609L18.5852 56.529V57.3813L17.8732 57.9494L18.2292 58.5176L19.6533 59.0857V59.938L19.2973 61.0743V62.2106V63.0628L18.5852 63.631L19.6533 63.9151L20.0093 64.7673H22.5014L22.8574 65.3354H23.9254L24.6375 65.9036L25.7055 66.1877L26.7735 65.9036L28.9096 67.324L29.6216 68.7444L32.1137 69.8807L32.8257 70.1648H34.9618L36.0299 71.3011L35.6738 72.7215L36.3859 73.0055L37.0979 72.7215L38.1659 73.0055L39.59 74.4259L41.7261 76.4145L42.7941 77.2667L43.5061 78.9712L43.8621 80.3915L43.5061 81.5278L43.8621 82.096L44.5742 82.6642V83.5164L64.5109 84.6527L64.8669 84.3686L65.9349 84.6527H66.2909L66.6469 84.0845L67.0029 83.5164V82.3801L65.5789 82.096L65.2229 81.5278L65.5789 80.6756V78.9712H66.6469L67.359 77.8348L67.715 76.6985L68.071 75.5622V74.9941L68.783 74.4259L69.139 73.8578L70.5631 73.2896L71.6311 72.4374L69.851 71.017L69.495 69.3125L68.783 68.1762L68.427 67.6081V66.7558L31.7577 29.5417L37.0979 6.53142Z" fill="#43A5FF" stroke="white" stroke-linecap="round" stroke-linejoin="round"/>
</svg>
