<svg width="74" height="46" viewBox="0 0 74 46" fill="none" xmlns="http://www.w3.org/2000/svg">
<path id="Florida (FL)" opacity="0.8" fill-rule="evenodd" clip-rule="evenodd" d="M23.2803 3.00435L1.20757 4.99289L0.851562 6.41327L1.9196 7.26551L2.98764 7.54958V8.68589L3.34365 9.25405H4.05567L3.34365 10.3904L3.69966 10.6744L5.47972 8.96997L5.12371 8.11774L6.19175 8.68589L6.54776 8.11774H7.25979L6.90377 8.68589L7.97181 8.96997L7.25979 9.25405L10.4639 8.96997L11.1759 8.11774H11.8879L13.668 7.83366L14.736 8.68589L12.956 8.96997L15.8041 9.53812L17.9402 10.3904L16.8721 9.53812L17.9402 8.96997L18.2962 9.53812L19.3642 8.68589L19.7202 9.25405L18.6522 10.1063L19.3642 10.3904H20.4322L21.1443 10.9585L20.4322 11.2426L19.3642 10.9585L21.1443 11.8107L22.2123 12.663V13.5152H23.2803L24.7044 12.9471L26.1284 12.0948L26.4845 12.663L28.9765 10.9585H30.4006L28.9765 10.3904L30.4006 9.53812L31.4686 9.25405H33.2487L34.6727 9.8222H35.7408L37.1648 10.9585L37.5208 11.5267L38.9449 11.8107L39.3009 12.9471L40.0129 13.5152L41.081 13.7993L41.793 14.6515L42.861 15.2197H44.9971L45.7091 16.6401L46.7772 17.2082V18.3445L47.1332 18.9127V21.7535L46.4212 23.1738L47.1332 23.742L46.7772 25.7305L48.2012 26.5828L48.5572 25.4465L47.4892 24.8783L47.8452 24.0261L49.2693 24.5942V25.4465L49.9813 24.5942L50.3373 25.1624L50.6933 25.7305L49.2693 27.435L48.9132 28.5713L49.9813 29.4235L50.3373 30.2758L51.4053 31.4121L52.1174 32.2643L53.1854 33.1165H54.2534L52.8294 31.9802H53.8974L55.3215 31.6962L55.6775 31.9802L54.9655 32.2643L55.3215 34.2529L55.6775 35.1051L56.3895 34.821V34.2529L57.8136 33.4006V33.9688L57.1015 34.5369L56.3895 35.3892L57.1015 35.6732L57.4575 35.3892L58.1696 36.5255L58.5256 37.9459L59.5936 39.0822L62.4417 39.6503L63.5098 40.2185V40.7866L63.8658 41.0707L64.9338 41.9229L65.6458 43.0592L67.4259 43.3433L68.1379 43.9115L67.4259 44.4796L65.6458 43.6274V44.4796L66.3579 45.0478L68.1379 44.7637L68.4939 44.1956L69.918 44.4796L70.986 43.3433H72.0541L73.1221 41.9229L72.4101 41.3548L73.1221 39.3662L73.4781 37.6618V36.2414V34.5369L73.1221 34.2529V31.9802L72.7661 30.2758L72.0541 29.7076V29.1395L70.63 28.0032H69.918L69.562 27.435L70.63 27.7191L69.918 26.5828L69.562 26.2987L68.1379 24.3101L66.7139 22.6057L64.9338 20.3331L63.1537 18.3445L62.4417 16.356L63.1537 16.0719L63.5098 17.2082H64.5778L61.3737 14.0834L58.1696 10.6744L56.0335 6.69735L55.6775 6.1292L54.9655 4.99289L54.6094 3.5725L53.5414 3.00435V2.15211H54.2534V1.58396H51.4053L49.6253 1.29988L48.9132 1.86804V3.00435L49.6253 3.28842L49.2693 4.99289H48.2012L47.4892 4.14065V3.5725L45.3531 3.85658L24.3484 4.99289L23.9924 3.85658L23.2803 3.00435Z" fill="#43A5FF" stroke="white" stroke-linecap="round" stroke-linejoin="round"/>
</svg>
