<svg width="46" height="38" viewBox="0 0 46 38" fill="none" xmlns="http://www.w3.org/2000/svg">
<path id="Georgia (GA)" opacity="0.25" fill-rule="evenodd" clip-rule="evenodd" d="M21.2478 1.48315L0.599121 3.75577L7.00735 19.6641L8.4314 22.2208L9.49943 23.3571V24.4934L10.5675 24.7775L9.49943 25.6297V27.0501L8.78741 27.6183V29.0387L10.2115 30.459L9.85544 33.2998L10.9235 34.1521L11.2795 35.0043L11.9915 35.8565L12.3475 36.9928L33.3523 35.8565L35.4883 35.5724V36.1406L36.2004 36.9928H37.2684L37.6244 35.2884L36.9124 35.0043V33.868L37.6244 33.2998L39.4045 33.5839H41.5406L40.8285 32.7317L41.5406 31.5954H40.8285L41.1845 31.0272L40.8285 30.459V30.175V29.3227H41.5406V30.175L42.2526 29.0387L40.4725 28.7546V28.1864L42.2526 28.4705L41.8966 27.9023L42.9646 27.0501L41.8966 27.3342L41.1845 26.766L42.6086 26.482L41.8966 25.9138L42.2526 25.3457L41.5406 25.0616H42.9646L43.3206 24.4934L42.2526 24.2093L42.6086 23.6412L44.0326 23.9253V23.3571L44.7447 22.789L43.6766 22.5049L42.9646 22.2208L42.6086 22.5049L41.8966 21.6526V20.5163L40.8285 19.38L40.4725 18.8119H39.4045L39.0485 18.2437L38.6925 17.1074L37.9804 16.2552V15.687L36.2004 14.8348H35.1323V14.2666L34.4203 13.9826V13.4144L33.3523 13.1303V12.5622L32.2842 11.7099H31.2162L30.1482 10.2896L28.3681 9.7214L28.0121 9.15324H27.3001L26.944 8.30101L25.876 7.73286L25.52 7.44878L25.164 6.59655L24.0959 6.02839V5.17616L22.6719 5.46024L21.6039 4.89208L21.2478 4.60801L20.1798 4.32393L19.4678 4.03985L20.1798 2.90354L20.5358 2.33539L21.2478 1.48315Z" fill="#43A5FF" stroke="white" stroke-linecap="round" stroke-linejoin="round"/>
</svg>
