<svg width="61" height="31" viewBox="0 0 61 31" fill="none" xmlns="http://www.w3.org/2000/svg">
<path id="Hawaii (HI)" fill-rule="evenodd" clip-rule="evenodd" d="M50.7798 29.7613L51.4918 29.4772L51.8478 28.625L53.6279 27.4887L55.052 26.9205L56.476 26.6365L58.2561 26.3524L59.6801 25.5002L60.3921 24.3638L58.6121 23.7957L58.2561 22.6594H57.188V21.5231L55.764 20.3868L51.8478 19.2505L51.4918 19.5345L49.7118 18.6823L48.9997 18.1141L47.9317 18.6823L48.6437 19.8186L48.9997 20.3868L47.5757 21.8071L46.5077 22.9435L47.2197 24.0798L47.9317 25.5002L48.2877 26.6365L47.9317 28.3409L48.6437 29.1932H50.0678L50.7798 29.7613ZM2.36209 2.77397L1.29406 3.6262L0.582031 4.19436V4.76251L0.938044 5.04659L1.65007 4.19436L2.71811 3.91028V3.05805L2.36209 2.77397ZM8.0583 0.785431L6.27824 1.63766L5.56621 2.4899L5.92223 3.34213H6.99026L8.0583 4.19436H8.77033L10.1944 3.91028L10.5504 2.77397L11.2624 1.92174L10.1944 1.06951L8.77033 1.35359L8.0583 0.785431ZM25.5029 5.61475L26.927 7.03514V8.17145L28.351 7.60329L28.707 8.45553L29.063 9.30776H27.995L26.2149 9.02368L25.1469 8.45553V9.02368L24.4349 9.30776L23.3668 8.45553L22.6548 7.60329L22.2988 6.46698L23.7228 6.75106L25.5029 5.61475ZM33.3352 9.59183L34.0472 9.87591L35.1153 10.16H36.5393V9.87591L37.2513 10.4441H39.7434L38.3194 11.2963H36.8953L35.8273 10.7281L33.6912 11.0122H32.9792L32.6232 10.4441L33.3352 10.16V9.59183ZM35.8273 12.4326H36.8953L38.3194 13.2848L37.2513 14.1371L36.1833 13.853V13.0008L35.4713 12.7167L35.8273 12.4326ZM40.8115 15.2734L39.3874 15.5574V15.8415L40.0994 16.1256L41.1675 15.8415L40.8115 15.2734ZM41.5235 13.5689L42.2355 14.1371V14.9893L42.5915 15.5575L43.3035 15.2734H44.3716L45.0836 14.7052L45.7956 14.9893L46.8637 14.1371V13.5689L45.7956 13.0008L44.0156 12.1485L42.5915 12.7167L41.8795 12.4326L40.0994 11.0122L39.7434 11.8645L39.3874 12.4326L40.4554 13.5689H41.5235Z" fill="#43A5FF" stroke="white" stroke-linecap="round" stroke-linejoin="round"/>
</svg>
