<svg width="49" height="60" viewBox="0 0 49 60" fill="none" xmlns="http://www.w3.org/2000/svg">
<path opacity="0.3" fill-rule="evenodd" clip-rule="evenodd" d="M45.7404 59.2015L47.8765 39.6001L46.0965 37.6116H45.3844L44.6724 38.7479H42.5363L42.1803 38.4638L38.9762 38.1798L38.2642 39.032L35.7721 38.4638L35.0601 39.3161L33.636 38.1798L32.924 35.9071H31.856L30.7879 35.0549L31.1439 33.9186L29.7199 31.646L29.0079 29.3734L28.2958 28.237L25.4477 29.9415L24.0237 28.8052V27.1007L25.0917 26.8167L24.7357 24.544L25.4477 24.26L26.8718 20.851H24.7357V19.9988H24.0237L22.5996 18.8625L22.9556 18.2943L20.4636 15.7376L19.3955 15.1695L17.9715 13.7491H18.3275L17.9715 12.8969L18.3275 12.3287L17.6155 10.9083L16.1914 9.20386L17.6155 2.10193L10.8512 1.24969L6.93508 20.851L7.6471 21.9873V22.5555L7.29109 22.8396L7.6471 24.544L9.78318 25.9644L10.1392 27.3848L8.35913 29.0893L8.00312 29.6574L6.57907 31.3619L6.22305 32.2141L4.79901 33.3504L3.01894 35.0549L2.66293 36.7594L4.08698 37.0434L4.79901 37.6116L4.08698 38.1798V39.032L3.37496 40.1683L0.526855 54.3722L22.9556 56.9289L45.7404 59.2015Z" fill="#43A5FF" stroke="white" stroke-linecap="round" stroke-linejoin="round"/>
</svg>
