<svg width="35" height="47" viewBox="0 0 35 47" fill="none" xmlns="http://www.w3.org/2000/svg">
<path id="Illinois (IL)" opacity="0.8" fill-rule="evenodd" clip-rule="evenodd" d="M27.6105 1.37219L6.2498 3.07666L8.02986 4.21297V5.0652L10.1659 5.63335L10.5219 7.90597L9.45391 8.7582V9.89451L7.31784 11.0308L4.46974 11.599L3.75771 13.3034L5.18176 14.4398L5.53777 15.292L4.11372 16.4283V17.5646L1.97765 18.7009L2.33366 19.8372L1.97765 20.1213L1.62164 20.6895L1.26562 21.8258L1.97765 23.5302L3.04569 25.2347L5.18176 26.6551L5.53777 27.2232L7.67385 28.0755L8.38587 28.9277V29.7799L9.0979 31.2003L9.80992 31.7685L10.878 30.9162H12.302L13.37 31.7685L13.014 32.0526V33.1889L11.946 35.4615V36.5978L14.7941 38.3023L16.9302 39.1545H17.2862L17.9982 40.0067L19.4223 40.5749V41.7112L20.1343 42.2793V42.5634L19.7783 43.4156V43.6997L20.8463 44.836V45.4042L21.9143 45.6883V45.1201L22.6264 45.6883L22.9824 45.4042L22.6264 45.1201L23.3384 44.2679L24.0504 43.6997H25.1185L27.6105 44.552H27.9666L28.6786 44.2679L28.3226 43.6997L27.6105 42.8475L27.9666 41.9953L29.0346 41.7112L30.8147 41.143V40.5749L30.1026 40.0067L30.4586 39.1545L30.8147 38.5863L30.4586 37.7341L30.8147 37.45V36.3137L31.5267 35.7456L30.8147 35.1774L31.1707 34.6092L31.8827 34.3252L32.5947 33.1889L33.3067 32.6207V31.7685L34.0188 30.9162V30.3481L33.6628 29.4959V28.9277L32.9507 28.0755L32.2387 27.5073L32.9507 27.2232L32.5947 26.371L33.3067 25.8028L30.8147 7.33782L29.7466 6.48559L29.3906 5.63335V4.78112L28.3226 4.21297L27.9666 3.36073L27.6105 3.07666V1.37219Z" fill="#43A5FF" stroke="white" stroke-linecap="round" stroke-linejoin="round"/>
</svg>
