<svg width="27" height="36" viewBox="0 0 27 36" fill="none" xmlns="http://www.w3.org/2000/svg">
<path id="Indiana (IN)" fill-rule="evenodd" clip-rule="evenodd" d="M1.81451 3.33782L2.88255 3.90598H3.95058L7.1547 2.48559L22.4632 0.781128V1.34928L25.6673 21.8029L25.3113 22.0869L25.6673 22.6551V23.2232L26.3794 23.5073V24.3596H25.3113L23.5313 25.2118L22.8192 24.9277L21.3952 25.2118L21.7512 26.6322L21.0392 27.4844H20.3272V28.6207L19.6151 28.9048H18.9031L18.5471 30.0411V31.1774L17.4791 31.7456L16.411 31.1774L15.343 30.8933L14.987 30.3252L14.2749 31.1774L13.9189 31.7456L13.5629 32.3137L13.2069 33.166L12.4949 32.8819L11.4268 32.3137L10.3588 32.5978L10.0028 32.8819L9.29077 34.0182L8.57875 33.45L6.79868 32.8819L5.73065 33.45L5.37463 32.8819V33.7341L5.01862 34.0182L4.66261 33.45L3.95058 33.7341L2.88255 33.45V34.0182V34.5863H1.81451L1.4585 33.7341L1.81451 33.45V32.3137L2.52653 31.7456L1.81451 31.1774L2.17052 30.6093L2.88255 30.3252L3.59457 29.1889L4.3066 28.6207V27.7685L5.01862 26.9162V26.3481L4.66261 25.4959V24.9277L3.95058 24.0755L3.23856 23.5073L3.95058 23.2232L3.59457 22.371L4.3066 21.8029L1.81451 3.33782Z" fill="#43A5FF" stroke="white" stroke-linecap="round" stroke-linejoin="round"/>
</svg>
