<svg width="52" height="26" viewBox="0 0 52 26" fill="none" xmlns="http://www.w3.org/2000/svg">
<path id="Iowa (IA)" opacity="0.5" fill-rule="evenodd" clip-rule="evenodd" d="M8.15687 24.8372C8.15687 24.8372 18.3596 24.6587 23.461 24.4274C28.8026 24.1853 39.486 23.4168 39.486 23.4168L41.9781 25.1213L42.3341 24.8372L41.9781 23.7009L44.1141 22.5646V21.4283L45.5382 20.292L45.1822 19.4398L43.7581 18.3034L44.4701 16.599L47.3182 16.0308L49.4543 14.8945V13.7582L50.5224 12.906L50.1663 10.6334L48.0303 10.0652V9.21297L46.2502 8.07665L45.5382 6.65627H43.4021L42.3341 4.9518L41.9781 2.96326L42.6901 2.11103L41.622 1.54288L41.266 0.690643L1.03662 2.39511V2.96326L1.74865 3.53142L1.39263 4.38365L2.10466 4.9518L1.74865 7.22442L1.03662 8.07665L2.10466 10.0652H2.81668L3.1727 11.4856V12.6219L3.88472 12.906L4.24073 13.7582L4.95276 14.0423V14.8945L5.66478 15.4627L5.30877 17.1671L6.37681 18.0194V18.8716L7.44485 19.4398L6.73282 19.7238L7.44485 20.292V23.7009L8.15687 24.2691V24.8372Z" fill="#43A5FF" stroke="white" stroke-linecap="round" stroke-linejoin="round"/>
</svg>
