<svg width="60" height="27" viewBox="0 0 60 27" fill="none" xmlns="http://www.w3.org/2000/svg">
<path id="Kentucky (KY)" opacity="0.48" fill-rule="evenodd" clip-rule="evenodd" d="M1.20215 25.6653L12.2385 24.8131V24.2449L11.8825 23.3927H14.0186L46.7717 20.836L47.4838 20.2679L51.3999 18.5634L51.7559 17.7112L53.536 17.143V16.5749L54.248 16.0067V15.1545L56.7401 14.0182L59.2322 11.4615V11.1774H58.1641L56.3841 10.3252L54.96 8.90477L54.604 8.33661L53.18 7.2003L53.536 6.064L53.18 5.21176L52.4679 4.35953L51.0439 4.07545L50.3319 2.65507L48.9078 3.5073L48.5518 4.07545H47.4838L47.1278 4.35953L46.4157 3.79138H44.9917L44.2797 4.64361L43.5676 4.35953L42.4996 3.5073L40.7195 3.79138L39.6515 3.5073L39.2955 2.93914L38.5835 1.80283H37.8714L37.1594 1.23468L36.4474 1.80283L35.3793 1.23468L34.3113 2.08691L34.6673 2.65507V3.22322L35.3793 3.5073V4.35953H34.3113L32.5312 5.21176L31.8192 4.92769L30.3952 5.21176L30.7512 6.63215L30.0392 7.48438H29.3271V8.62069L28.6151 8.90477H27.9031L27.5471 10.0411V11.1774L26.479 11.7455L25.411 11.1774L24.343 10.8933L23.9869 10.3252L23.2749 11.1774L22.5629 12.3137L22.2069 13.1659L21.4949 12.8819L20.4268 12.3137L19.3588 12.5978L19.0028 12.8819L18.2907 14.0182L17.5787 13.45L15.7987 12.8819L14.7306 13.45L14.3746 12.8819V13.7341L14.0186 14.0182L13.6626 13.45L12.9506 13.7341L11.8825 13.45V14.5863H10.8145L10.4585 15.1545L10.1025 16.0067L10.8145 16.5749V17.143L7.96639 17.9952L7.61037 18.8475L8.3224 19.6997L8.67841 20.2679L7.96639 20.5519H7.61037L5.11829 19.6997H4.05025L3.33822 20.2679L2.6262 21.1201L2.98221 21.4042L2.6262 21.6883H3.33822L2.98221 22.8246L3.33822 23.3927L2.6262 25.0972L1.55816 24.529V24.8131L1.20215 25.6653Z" fill="#43A5FF" stroke="white" stroke-linecap="round" stroke-linejoin="round"/>
</svg>
