<svg width="48" height="32" viewBox="0 0 48 32" fill="none" xmlns="http://www.w3.org/2000/svg">
<path id="Louisiana (LA)" opacity="0.9" fill-rule="evenodd" clip-rule="evenodd" d="M0.957031 1.77754L24.8099 0.641235L25.8779 1.20939L25.1659 2.06162L25.5219 2.62978L25.8779 2.91385L25.1659 3.19793L25.8779 4.05016V4.9024L27.302 5.75463L26.5899 7.45909H26.2339L26.5899 8.5954L24.4539 10.0158L23.7418 12.0043L23.0298 12.8566L23.3858 13.9929L23.0298 14.561H22.3178L22.6738 15.6973V16.8336L38.6944 15.6973V16.2655L38.3383 18.254L38.6944 19.1063L39.7624 19.9585L40.4744 21.663V21.947H39.4064L37.6263 21.663L36.5583 20.8107H35.1342L33.3542 22.5152L33.7102 23.3674L35.1342 23.6515L36.5583 23.9356L38.6944 22.7993H40.1184L39.7624 23.3674L38.6944 23.6515L39.0504 24.2197H39.7624L40.4744 24.7878L41.1864 24.2197L41.8985 23.0833L42.6105 24.2197L42.9665 24.7878H41.8985L41.1864 25.9241L40.1184 25.64L40.4744 26.4923L39.7624 26.7764L42.2545 28.1967L45.1026 28.7649L46.5266 30.1853L45.4586 31.0375L44.3906 30.1853L44.0345 30.4694L42.9665 29.6171L41.5425 29.333L41.1864 28.7649L40.1184 29.049L39.0504 27.9127L36.9143 27.3445H35.8463L36.2023 27.9127L37.2703 28.4808V29.333V30.1853L36.5583 31.0375L35.8463 30.4694V29.9012L34.4222 29.333L33.3542 29.6171L32.6421 29.9012L32.2861 31.0375L29.794 30.7534H28.726L26.9459 30.4694V29.9012L28.37 30.1853L28.014 29.6171L26.9459 28.7649L27.302 27.9127L26.9459 27.6286L26.2339 28.4808L24.8099 28.1967L24.4539 27.9127L24.0978 27.3445L23.7418 27.6286L23.3858 26.7764L21.6058 27.0604V26.2082H20.5377L19.1137 26.7764L18.4016 27.0604L19.4697 27.9127L18.0456 28.7649H14.4855L11.2814 27.3445L9.14532 27.0604L7.72127 27.3445L4.87317 27.9127H4.16114L3.80513 27.3445L4.87317 27.0604V26.2082V25.64V25.0719L5.22918 23.9356L4.51716 22.7993L4.87317 22.2311V21.3789L5.58519 20.2426L5.94121 19.3903V17.6859L6.29722 17.4018L5.94121 17.1177V16.2655L4.87317 15.4133V14.561L4.16114 13.9929V13.7088L3.44912 13.1406V12.0043L2.38108 10.868L1.31304 10.0158L0.957031 1.77754Z" fill="#43A5FF" stroke="white" stroke-linecap="round" stroke-linejoin="round"/>
</svg>
