<svg width="32" height="38" viewBox="0 0 32 38" fill="none" xmlns="http://www.w3.org/2000/svg">
<path id="Maine (ME)" opacity="0.48" fill-rule="evenodd" clip-rule="evenodd" d="M7.85902 2.13631L4.65491 8.67009L5.01092 10.6586L4.29889 11.5109V12.079L3.94288 12.9312L4.65491 13.2153L4.29889 13.4994V14.6357H5.01092L4.29889 15.772V16.6243L3.23086 17.7606L2.87484 18.6128L3.58687 19.181L3.23086 19.7491L2.51883 19.465V19.7491V20.8854L1.45079 20.0332L0.73877 20.8854L6.43497 34.2371V35.0893L7.85902 35.6574V36.5097L9.28307 37.0778L9.63908 35.6574L9.28307 34.5211L10.3511 33.953L10.7071 33.6689L10.3511 32.5326L11.4191 32.2485L10.7071 31.1122L12.1312 29.6918H12.8432V30.544L13.1992 29.9759L13.9112 30.544L14.2672 29.9759L12.4872 28.2714L14.2672 29.4077V27.9874L15.3353 29.4077L16.0473 27.4192L17.1153 27.9874L17.8274 27.4192L18.1834 26.2829L17.8274 24.2943L18.1834 23.7262L18.8954 22.874L19.2514 23.4421L19.9634 24.2943H21.0315L21.3875 23.158L22.4555 23.4421L23.1676 24.0103L23.8796 22.3058L23.1676 21.7376L24.5916 22.3058L25.6596 21.7376L26.7277 20.0332H27.4397L28.8638 19.465L30.6438 18.3287L30.9998 17.1924L29.9318 17.4765V16.3402L28.5077 15.4879L27.7957 15.772L26.3717 15.2039L26.0157 14.6357L25.6596 13.7835L26.0157 12.9312L25.3036 12.6472H23.5236L22.8115 12.3631L22.4555 10.6586L18.8954 2.42039L17.1153 1.85223L16.0473 1L14.6233 1.28408L13.9112 2.13631L12.4872 2.70446L11.0631 3.27262L9.99509 2.98854L9.63908 1.85223L7.85902 2.13631Z" fill="#43A5FF" stroke="white" stroke-linecap="round" stroke-linejoin="round"/>
</svg>
