<svg width="39" height="15" viewBox="0 0 39 15" fill="none" xmlns="http://www.w3.org/2000/svg">
<path id="Maryland (MD)" fill-rule="evenodd" clip-rule="evenodd" d="M0.896973 5.57603L1.96501 9.55311L3.38906 8.4168L4.10108 7.56457L4.4571 6.99642H5.52513L6.59317 6.14419V5.29195L7.3052 6.14419H8.37323L9.08526 5.86011L9.44127 5.00788H10.5093L10.8653 4.43972L11.2213 4.15564L12.6454 4.7238L14.0694 4.43972L13.7134 5.00788H14.0694L14.4254 5.57603L15.1375 5.86011V6.42826H16.5615L17.6296 6.71234L17.2735 7.56457L17.9856 8.13273H19.4096L19.7656 8.70088H20.8337L21.1897 8.13273L22.2577 8.98496L21.9017 9.55311V10.1213L21.5457 10.6894V11.2576L20.8337 12.1098V12.962H21.5457V12.1098L22.2577 12.3939L22.6137 12.1098L23.3258 12.962L24.0378 13.2461L23.6818 12.3939L24.3938 12.962L24.7498 13.5302L25.8178 13.2461L26.5299 13.5302L26.8859 13.8143L27.5979 13.5302L28.3099 14.3824L28.6659 13.8143L27.5979 12.962H27.2419L26.1739 12.3939L25.4618 12.1098L24.7498 11.2576V10.1213L25.4618 11.2576L26.1739 11.8257L27.5979 12.3939V12.1098L26.1739 10.9735V10.1213L25.4618 9.55311V8.98496V8.13273L24.7498 7.84865L25.4618 7.56457L24.3938 7.2805L25.4618 6.42826L24.0378 5.57603L24.7498 5.29195L25.1058 5.57603V5.00788L25.8178 4.43972L25.4618 4.15564L26.1739 3.87157L26.5299 4.43972V3.30341L26.8859 3.87157L27.5979 3.58749L27.2419 3.01933L27.5979 2.45118L28.3099 1.88302L28.6659 2.73526L29.378 2.1671V2.73526L28.6659 3.30341L29.734 3.58749L29.378 3.87157L27.9539 4.15564L27.2419 5.00788V6.14419L27.9539 5.86011H28.3099L27.9539 6.99642L27.5979 7.2805H26.8859V7.84865L28.3099 7.2805L28.6659 7.84865L28.3099 8.4168H29.022L28.6659 8.98496L28.3099 9.26904L29.378 9.83719L30.09 9.55311L30.446 10.1213L28.3099 10.4053L28.6659 10.9735L28.3099 11.5417L29.734 11.8257L30.446 12.678V11.8257H31.158L31.8701 10.9735V11.8257V12.3939H32.2261L31.8701 12.962H32.5821L32.9381 13.5302L32.5821 14.3824L34.3621 14.0984L36.1422 13.5302V12.678L36.8542 12.3939L36.4982 11.5417L37.5663 11.2576V10.6894L36.8542 9.83719L32.5821 10.6894L29.378 1.03079L0.896973 5.57603Z" fill="#43A5FF" stroke="white" stroke-linecap="round" stroke-linejoin="round"/>
</svg>
