<svg width="30" height="13" viewBox="0 0 30 13" fill="none" xmlns="http://www.w3.org/2000/svg">
<path id="Massachusetts (MA)" fill-rule="evenodd" clip-rule="evenodd" d="M1.12598 10.725H1.48199L6.11015 9.87275L6.46616 10.1568L13.9424 8.45237V8.73644L16.7905 7.88421L17.1465 8.73644H17.5026H17.8586V9.58868L18.9266 9.87275L19.2826 9.02052H19.6386V9.58868L19.2826 10.1568L19.6386 11.2931L19.9946 11.5772L20.3507 11.0091L20.7067 10.725L21.0627 11.0091L21.4187 10.4409V9.87275H21.7747L22.4867 9.3046V8.73644H23.1988L23.5548 9.3046V10.1568H24.2668L24.6228 9.58868L24.9788 9.3046L26.0469 9.02052L28.1829 8.16829V7.31606L27.8269 7.03198L27.4709 6.46383L26.7589 5.61159H26.4029L26.7589 6.17975C26.7589 6.17975 27.581 6.79964 27.8141 7.10958C27.937 7.2731 27.8269 7.60013 27.8269 7.60013L26.7589 7.88421L26.4029 8.16829L26.0469 8.45237H25.3348H23.9108L23.5548 7.88421V7.03198L22.8427 7.31606L21.7747 7.03198L22.1307 6.17975L20.7067 5.04344L19.9946 5.32752L19.6386 5.61159L18.9266 5.32752L18.5706 5.04344V4.47528L18.9266 4.19121V3.90713L19.6386 3.62305L19.2826 3.33897V2.77082L20.7067 2.48674L21.0627 1.91859L20.3507 2.20266L19.6386 1.91859L19.2826 1.63451V1.06635H18.5706L18.9266 0.498199H18.2146L17.5026 0.782277C17.5026 0.782277 17.2652 1.16105 17.1465 1.35043H16.7905L16.0785 2.48674L15.0105 2.77082L7.5342 4.19121L1.48199 5.04344L1.12598 10.725ZM23.1988 11.5772V12.1454L23.9108 11.5772L25.3348 11.2931L24.2668 10.725L23.9108 11.2931L23.1988 11.5772ZM27.8269 11.2931L28.1829 11.5772H28.895L29.251 11.2931L28.895 10.725L28.5389 11.2931H27.8269ZM18.9266 10.4409L18.5706 11.0091L18.9266 11.8613L19.2826 11.5772L18.9266 10.4409Z" fill="#43A5FF" stroke="white" stroke-linecap="round" stroke-linejoin="round"/>
</svg>
