<svg width="65" height="45" viewBox="0 0 65 45" fill="none" xmlns="http://www.w3.org/2000/svg">
<path opacity="0.48" fill-rule="evenodd" clip-rule="evenodd" d="M33.1548 44.4856L48.4634 42.7811V43.3493L58.4317 41.9289V41.0766L59.8558 39.6563V37.6677L60.5678 36.5314L61.6358 36.2473L61.2798 35.111L62.3479 34.5429L61.9918 33.9747L62.7039 33.6906L63.7719 34.5429L64.4839 31.1339L63.0599 29.7136L61.9918 26.8728L60.9238 24.6002L60.2118 23.4638H58.7877L57.3637 24.3161H56.6517L55.5836 26.5887H54.8716L54.5156 27.4409H53.4475L51.6675 27.1569L52.0235 24.8842L53.4475 24.3161L54.1596 23.7479V22.6116L54.8716 22.0435L55.5836 21.4753L55.2276 18.3505L54.5156 17.2141L53.4475 16.646L53.8036 15.7938L54.8716 16.0778L54.1596 15.2256H53.4475V14.0893H52.0235L50.9555 13.8052L49.8874 13.5211H47.7513L47.3953 12.6689L46.3273 12.3848H45.2593L43.1232 11.8167L42.0551 12.3848L40.9871 13.2371V14.0893L41.3431 14.3734L42.7672 14.6574L42.4112 14.9415L40.2751 15.5097L39.207 16.0778L39.5631 17.4982V19.2027L38.851 20.339L38.139 20.0549L37.783 19.4868V18.0664V16.9301L36.715 18.6345L36.3589 19.2027H35.6469L34.5789 19.7708L34.9349 20.6231L33.5108 21.1912L34.2229 22.0435V24.032L33.5108 25.1683L32.4428 26.3046L33.5108 27.4409V28.2932L32.7988 29.4295L33.5108 30.8499L34.5789 31.9862L34.9349 32.2702H35.6469L35.2909 33.1225L36.0029 34.5429L36.3589 35.3951V39.0881L35.2909 41.0766L34.5789 42.497L34.2229 43.9174L33.1548 44.4856ZM23.1865 19.2027L25.3226 15.2256L26.3906 13.8052L26.7466 12.1008L27.4586 12.953V13.8052L28.5267 12.6689L29.9507 12.1008L30.3067 13.2371L29.2387 14.0893L29.5947 14.3734L31.3748 12.6689L32.0868 11.8167L33.5109 11.2485L34.5789 11.5326L36.359 10.9644L37.071 10.1122L39.5631 9.82814L41.6991 10.3963L42.7672 11.2485L43.4792 9.54406H45.2593L48.1074 9.82814L49.1754 9.54406H50.2434H51.6675V8.97591L50.9555 8.40775L50.2434 9.25998H48.8194L47.7514 8.69183L47.0393 8.40775L46.3273 8.12367V7.55552L46.6833 6.70329L46.3273 5.56698L45.2593 6.13513L43.8352 6.70329H43.1232L42.7672 6.41921L41.6991 6.70329L39.9191 6.41921V4.43067L38.495 4.71475L36.359 5.85106L33.8669 5.56698L31.7308 6.13513L29.5947 7.55552L28.8827 8.12367L27.8147 7.8396L27.1026 8.40775L26.0346 7.55552L24.2545 8.40775L23.1865 8.12367L21.0504 5.85106L18.9143 5.56698L17.4903 5.85106L15.3542 6.98736L14.9982 4.99882L16.4223 3.57844L18.2023 2.15805L17.8463 1.87397L19.9824 1.30582H18.9143L16.7783 1.58989L14.6422 2.7262L13.9302 3.57844L12.8621 3.86251L12.1501 4.71475L11.4381 5.56698H10.37L8.94599 6.70329L5.74188 7.27144L5.02985 8.12367L3.96181 8.69183L1.46973 9.54406L2.89378 9.82814L3.96181 10.9644L12.5061 12.3848L13.9302 12.953L15.7102 12.6689L17.8463 12.953L18.9143 13.2371V14.0893H19.9824L21.0504 14.6575L21.7624 16.0778L21.0504 17.2142H21.4064L22.4745 16.9301H22.8305L22.1185 18.6345L23.1865 19.2027Z" fill="#43A5FF" stroke="white" stroke-linecap="round" stroke-linejoin="round"/>
</svg>
