<svg width="56" height="47" viewBox="0 0 56 47" fill="none" xmlns="http://www.w3.org/2000/svg">
<path opacity="0.6" fill-rule="evenodd" clip-rule="evenodd" d="M46.9095 44.6906L8.10414 46.3951L7.74812 32.4753L7.0361 31.623L5.61205 31.339L4.54401 29.6345L5.61205 29.0663L6.32407 28.2141L6.68009 27.3619L6.32407 24.5211L5.25604 23.3848L4.90002 22.2485L4.54401 20.2599V19.6918L4.188 18.2714V15.9988L3.83199 14.2943L1.69591 10.6013V7.47647L2.05192 6.62424L0.983887 4.35162L15.5804 3.78346V0.942688L17.0044 1.22677L17.7165 2.079L18.4285 3.78346V4.91977L19.4965 5.772H21.6326L21.9886 6.05608L24.8367 6.34016L25.1927 7.19239L26.2608 6.90831H27.6848L28.0408 6.34016L29.1089 6.05608H31.245L31.957 6.34016H33.381V6.90831H32.669L33.025 7.19239H34.4491L34.8051 8.3287L35.5171 8.61278L35.8731 8.89685L36.2291 7.76054H37.6532L38.0092 8.61278H38.7212H39.7893L40.1453 9.46501H40.8573L41.2133 10.0332L42.9934 9.46501L43.7054 9.18093L45.8415 8.04462L46.9095 9.18093L48.3336 8.89685L51.5377 8.61278L52.6057 9.46501L53.3177 9.18093H54.7418L52.2497 10.6013L48.3336 11.7376L45.8415 13.4421L42.9934 15.9988L40.1453 18.2714L38.3652 19.1236L38.0092 19.9759L37.6532 20.544H36.9412L37.2972 23.3848V25.0893L36.2291 25.6574L34.4491 26.5097L34.0931 27.3619L33.381 28.2141V29.0663L34.4491 29.3504L35.1611 30.2027L34.8051 31.339L34.4491 32.1912L34.8051 32.7594L34.4491 33.0434L34.8051 33.6116L34.4491 35.3161L36.2291 36.4524H37.6532L38.7212 37.3046L40.1453 37.5887L41.5693 38.725L42.6374 39.8613L43.7054 40.4294H45.1294L46.5535 41.5658L46.9095 42.418V44.6906Z" fill="#43A5FF" stroke="white" stroke-linecap="round" stroke-linejoin="round"/>
</svg>
