<svg width="57" height="38" viewBox="0 0 57 38" fill="none" xmlns="http://www.w3.org/2000/svg">
<path id="Missouri (MO)" opacity="0.6" fill-rule="evenodd" clip-rule="evenodd" d="M13.9603 2.54077C9.6923 2.73427 1.15625 2.8372 1.15625 2.8372V3.40535L1.86827 3.68943L2.5803 5.10981L3.64834 5.67797L4.36036 6.5302V7.09836L5.07239 7.66651L6.85245 8.51874L7.56447 8.23467L8.2765 8.51874L8.63251 9.37098L7.92049 9.65505L7.56447 10.2232L6.85245 11.0754L7.56447 11.6436L8.63251 12.2117V12.7799L9.34454 13.6321H10.4126L11.1246 13.9162L11.8366 31.2449L12.1926 35.222L48.1499 33.2335L49.2179 34.0857V34.6539L47.4379 36.6424L47.0819 36.9265V37.2106V37.4946L52.066 36.9265L52.422 36.0742L53.1341 35.7902L52.422 34.9379H53.1341L52.7781 34.0857H53.4901L53.1341 32.9494V32.3812L53.8461 32.9494L54.2021 32.6653L54.5581 31.8131V31.529L55.6262 32.0972L55.9822 31.2449L56.3382 30.3927L55.9822 29.8245L56.3382 28.6882H55.6262L54.9141 28.1201V28.6882L53.8461 28.4042V27.836L52.7781 26.6997V26.4156L53.1341 25.5634V25.2793L52.422 24.7112V23.5748L50.998 23.0067L50.286 22.1545H49.93L48.5059 21.5863L47.7939 21.3022L44.9458 19.5978V18.4615L46.0138 16.1888V15.3366L46.3698 14.7684L45.3018 13.9162H43.8777L42.8097 14.7684L42.0977 14.2003L41.3857 12.7799V11.9277L40.6736 11.0754L38.5376 10.2232L38.1815 9.65505L36.0455 8.23467L35.6895 7.66651L35.3334 7.09836L34.9774 6.5302L34.2654 4.82574L34.6214 3.68943L34.9774 3.12127L32.4853 1.41681C32.4853 1.41681 20.1353 2.26081 13.9603 2.54077Z" fill="#43A5FF" stroke="white" stroke-linecap="round" stroke-linejoin="round"/>
</svg>
