<svg width="31" height="41" viewBox="0 0 31 41" fill="none" xmlns="http://www.w3.org/2000/svg">
<path id="Mississippi (MS)" opacity="0.15" fill-rule="evenodd" clip-rule="evenodd" d="M26.5952 0.744339L26.9513 1.31249L27.6633 1.59657V21.1979V26.0272L29.7994 37.3903L29.4433 38.2426L28.0193 37.6744L27.6633 37.9585H26.5952L25.1712 37.3903L23.7471 38.2426L22.6791 38.8107L21.6111 38.2426V38.8107L21.2551 39.6629L19.475 39.947V39.3789L18.763 37.9585L17.6949 37.1062L17.3389 36.254L17.6949 34.2655V33.6973L1.67437 34.8336V33.6973L1.31836 32.561H2.03038L2.3864 31.9929L2.03038 30.8565L2.74241 30.0043L3.45443 28.0158L5.59051 26.5954L5.2345 25.4591H5.59051L6.30253 23.7546L4.87848 22.9024V22.0501L4.16646 21.1979L4.87848 20.9138L4.52247 20.6298L4.16646 20.0616L4.87848 19.2094L3.81045 18.6412V17.789L4.52247 17.2208L3.81045 16.3686V14.9482L3.09842 14.3801L3.81045 13.8119L3.09842 13.2437L4.16646 12.1074L3.81045 10.687L5.2345 10.1189L5.59051 9.83482L4.87848 9.26666L6.30253 8.13035V7.5622L7.37057 6.99404V4.43734H8.43861V3.58511L9.50665 3.01696V2.16473L26.5952 0.744339Z" fill="#43A5FF" stroke="white" stroke-linecap="round" stroke-linejoin="round"/>
</svg>
