<svg width="87" height="40" viewBox="0 0 87 40" fill="none" xmlns="http://www.w3.org/2000/svg">
<path opacity="0.4" fill-rule="evenodd" clip-rule="evenodd" d="M58.645 36.6485C67.0252 37.1097 85.2099 37.4639 85.2099 37.4639L86.2779 7.06758C86.2779 7.06758 73.1604 6.70551 59.2384 5.9153C50.9129 5.44275 42.2997 4.6346 36.032 4.1664C24.893 3.3343 2.61497 1.10196 2.61497 1.10196L1.19092 8.20389L2.61497 9.90836L3.32699 11.3287L2.97098 11.8969L3.32699 12.7491H2.97098L4.39503 14.1695L5.46307 14.7377L7.95515 17.2944L7.59914 17.8625L9.02319 18.9988H9.73522V19.8511H11.8713L10.4472 23.26L9.73522 23.5441L10.0912 25.8167L9.02319 26.1008V27.8052L10.4472 28.9415L13.2953 27.2371L14.0074 28.3734L14.7194 30.646L16.1434 32.9186L15.7874 34.0549L16.8555 34.9072H17.9235L18.6355 37.1798L20.0596 38.3161L20.7716 37.4639L23.2637 38.032L23.9757 37.1798L27.1798 37.4639L27.5358 37.7479H29.6719L30.3839 36.6116H31.096L32.876 38.6002L33.232 38.3161L33.5881 34.6231C33.5881 34.6231 49.818 36.1628 58.645 36.6485Z" fill="#43A5FF" stroke="white" stroke-linecap="round" stroke-linejoin="round"/>
</svg>
