<svg width="69" height="26" viewBox="0 0 69 26" fill="none" xmlns="http://www.w3.org/2000/svg">
<path id="Nebraska (NE)" opacity="0.6" fill-rule="evenodd" clip-rule="evenodd" d="M16.0952 16.9964V25.2347C16.0952 25.2347 30.2892 25.3636 37.3862 25.286C47.6151 25.1742 68.073 24.6665 68.073 24.6665L67.361 24.0983V23.5302L66.6489 22.678L65.5809 22.1098L64.8689 20.6894L64.1568 20.4053V19.269L63.4448 18.7009V17.5646V15.2919L62.7328 14.7238L63.4448 14.4397L62.3768 13.8716V13.0193L61.3087 12.1671L61.6648 10.4626L60.9527 9.89447V9.04224L60.2407 8.75816L59.8847 7.90593L59.1727 7.62185V6.48554L58.8167 5.06516H57.3926L56.6806 4.21293V3.64477H55.6125L55.2565 3.36069L54.1885 3.07662H53.1205L52.0524 2.22438L50.2724 2.50846H49.5603H47.7803L47.0682 3.07662H46.0002L43.1521 1.65623C43.1521 1.65623 25.7025 1.70229 16.9776 1.58329C11.818 1.51291 1.49865 1.08807 1.49865 1.08807L0.786621 16.9964H16.0952Z" fill="#43A5FF" stroke="white" stroke-linecap="round" stroke-linejoin="round"/>
</svg>
