<svg width="12" height="21" viewBox="0 0 12 21" fill="none" xmlns="http://www.w3.org/2000/svg">
<path id="New Jersey (NJ)" fill-rule="evenodd" clip-rule="evenodd" d="M3.00625 0.826935L9.41447 2.5314L9.77049 2.81548L9.41447 3.95179V4.80402L8.70245 5.0881L8.34644 5.65625L7.99042 6.50848L8.34644 7.07664L9.77049 7.36071H10.4825L10.8385 8.7811L10.4825 10.2015V11.0537V11.906L10.1265 12.19L10.4825 12.7582L10.1265 13.8945L9.77049 14.1786H9.05846L9.77049 15.0308H9.05846V15.599L9.41447 15.883H8.70245L8.34644 16.4512L7.63441 16.7353L8.34644 17.0193L7.63441 18.1557V18.4397L7.2784 18.7238V19.292L6.56637 19.8601V19.292V17.8716H5.85435H5.14232L4.4303 18.1557L4.07429 17.5875H3.00625L2.65024 17.0193H1.93821L0.870173 16.4512V15.599L0.51416 15.3149L0.870173 14.4627V13.8945H1.22619L1.93821 13.0423L2.65024 12.4741V11.906L5.14232 10.2015V9.63333L3.00625 8.49702H2.29422L1.93821 7.36071L0.870173 7.64479L0.51416 6.50848L0.870173 5.65625L1.22619 5.0881L0.51416 4.51994V3.95179L1.22619 3.38363L1.93821 2.24732V1.67917L3.00625 0.826935Z" fill="#43A5FF" stroke="white" stroke-linecap="round" stroke-linejoin="round"/>
</svg>
