<svg width="63" height="37" viewBox="0 0 63 37" fill="none" xmlns="http://www.w3.org/2000/svg">
<path fill-rule="evenodd" clip-rule="evenodd" d="M1.48877 30.2588L1.84478 32.2473L34.2419 26.8499L35.31 27.1339L35.666 27.7021L36.378 27.418L37.446 27.9862V29.4066L38.1581 30.2588H40.2941L41.0062 30.8269L47.4144 32.5314V32.2473L47.0584 31.3951L46.3463 30.8269V29.9747H46.7024L47.0584 30.5429L47.4144 31.111L47.7704 31.3951L48.1264 33.6677L49.1944 32.8155L49.5505 32.2473L48.8384 31.3951L50.2625 29.9747L49.5505 29.4066L48.4824 23.725H48.1264L48.4824 18.0435L48.1264 17.7594L46.7024 12.646V12.0778L45.9903 11.5097L45.6343 11.7938L45.2783 12.0778V11.5097V10.3734L44.9223 10.0893V9.80522L44.5663 9.52114L44.2103 8.66891H43.8543V7.24852L44.2103 6.68037L43.4982 5.82814L43.1422 4.69183L42.7862 4.12367V3.27144V2.70328L42.4302 2.41921V1.2829L32.4619 3.27144H31.3938L29.6138 4.40775L28.9017 5.25998L26.7657 7.5326L26.4096 8.10076V8.95299L25.3416 9.80522L22.8495 11.7938L23.2055 12.0778H24.2736H24.9856L25.3416 12.3619L24.9856 12.9301L24.2736 13.7823H23.9176L24.6296 14.3505V14.9186L25.3416 15.2027L24.9856 15.4868V16.0549L24.2736 16.339H23.5615L22.1375 17.7594L21.7815 18.3275L20.3574 18.8957L20.0014 19.1798H18.9334H17.8653L17.1533 19.4639L15.7293 20.032H15.0172L14.3052 19.4639L11.1011 19.7479L10.3891 20.032H8.96503L4.69288 21.4524L5.04889 22.0205V22.5887V22.8728H6.47294V23.4409L6.11693 24.0091L6.82896 24.5772V25.1454L6.11693 25.9976L5.40491 27.1339L3.98086 27.9862L3.26883 28.8384L1.48877 30.2588ZM47.0584 35.3722L46.7023 35.6563L46.3463 36.5085L47.0584 36.2244L47.4144 35.6563L47.0584 35.3722ZM47.7704 35.0881V35.3722L48.1264 35.6563L48.4824 35.3722L48.8384 35.0881L49.1944 34.804L49.9065 35.0881L50.2625 34.804L53.1106 33.6677H54.1786V33.0996H54.8906L56.3147 32.2473L58.0947 31.9633L58.4508 31.3951L58.0947 31.111L57.7387 31.3951L57.3827 31.111L58.8068 29.6906L58.4508 29.4066L57.0267 30.8269L56.6707 31.111L54.8906 31.3951H54.1786L53.8226 31.6792H53.4666V31.9633L52.0425 32.2473L51.6865 32.5314L50.9745 32.2473V32.8155L50.6185 32.5314L50.2625 32.8155V33.3836L49.5504 33.6677L49.1944 33.9518H48.4824L48.1264 34.2359L47.7704 35.0881ZM58.8068 30.8269V31.111H59.1628L60.2308 30.5429L60.5868 29.9747H61.2989L62.3669 29.1225L60.9429 29.6906H60.5868H60.2308L59.5188 29.9747L59.1628 30.2588L58.8068 30.8269Z" fill="#43A5FF" stroke="white" stroke-linecap="round" stroke-linejoin="round"/>
</svg>
