<svg width="15" height="23" viewBox="0 0 15 23" fill="none" xmlns="http://www.w3.org/2000/svg">
<path fill-rule="evenodd" clip-rule="evenodd" d="M2.53446 22.1912L10.0107 20.7708L11.0788 20.4867L11.7908 19.3504H12.1468L12.5028 18.7823L13.2148 18.4982H13.9269V17.646L14.2829 17.0778L12.8588 16.5097V15.6574L11.4348 15.0893V14.237L10.7227 12.8167L5.73857 0.885406L5.38256 1.45356L4.31452 1.16948L3.95851 1.45356V2.02172L3.60249 2.87395V3.72618L3.95851 4.29434L3.24648 5.43064L4.31452 6.56695L3.95851 6.85103V7.41919L2.89047 8.83957L2.53446 9.12365H1.82243L1.46642 9.69181L1.82243 10.544V12.5326L1.46642 12.8167V13.953L1.11041 14.5211V15.3734L0.754395 15.6574L1.11041 17.3619L1.46642 17.646L1.11041 18.7823L1.46642 19.3504V20.2027L1.11041 20.4867V21.339L2.53446 22.1912Z" fill="#43A5FF" stroke="white" stroke-linecap="round" stroke-linejoin="round"/>
</svg>
