<svg width="70" height="26" viewBox="0 0 70 26" fill="none" xmlns="http://www.w3.org/2000/svg">
<path id="North Carolina (NC)" opacity="0.8" fill-rule="evenodd" clip-rule="evenodd" d="M20.1489 7.56338L65.0065 1.0296L66.4306 2.16591L67.8546 3.87038L66.0746 2.73407L66.4306 3.5863L64.6505 2.73407L63.9385 3.01814L65.7185 3.87038L65.0065 4.15445L63.5825 3.87038L64.6505 4.72261L62.5144 3.87038V4.43853L63.5825 5.00669L62.5144 5.57484H61.0904L60.7344 4.43853V3.30222H60.0223V5.00669L60.7344 5.85892V6.71115L62.5144 6.42707L63.2265 5.85892L63.9385 6.42707L65.0065 6.14299L65.7185 5.29076L66.4306 6.14299L66.0746 6.99523L66.7866 7.2793L66.0746 7.84746H67.1426L67.4986 6.71115L67.1426 5.85892H68.2106L68.5666 5.29076L69.2787 6.42707V7.2793V8.13154L68.5666 7.84746L68.2106 8.13154L67.4986 9.836L66.7866 10.4042H65.3625L64.6505 9.836L63.9385 10.4042L63.5825 9.836L64.2945 9.26785L62.1584 9.55192L62.8704 10.4042H60.7344L59.3103 10.1201L60.0223 10.9723L62.1584 11.2564H64.2945V11.8245L62.8704 12.3927L63.9385 12.6768L62.8704 13.8131H61.8024L59.6663 12.9609L61.0904 14.3812L62.5144 14.6653H63.2265L63.9385 13.8131L64.6505 14.3812L66.4306 13.529L65.0065 15.8016L63.9385 15.2335L62.8704 15.8016L61.0904 16.6539L60.0223 16.0857V16.9379L58.9543 18.0742L58.5983 16.9379H57.8863L58.2423 17.5061L57.8863 17.7902L58.5983 18.3583L57.1742 19.2106L56.1062 20.6309L55.3942 22.0513V22.9036L54.6822 21.7673V24.3239H52.1901H51.8341L51.122 24.8921L50.054 25.1762L39.7296 19.2106L30.4733 20.3469L30.1173 19.2106L28.6932 18.3583L27.9812 18.9265L27.6252 18.0742L16.9448 19.2106L14.4527 20.0628L14.0967 20.6309H13.7407L11.2486 21.4832L1.28027 22.6195V20.6309L1.63629 20.3469L3.06034 20.6309L3.41635 18.9265L5.55242 17.5061H7.33249L9.82457 15.2335H11.2486L11.6046 13.8131H12.3167L12.6727 12.9609L13.7407 12.6768L14.0967 13.2449H14.8087L15.5208 11.8245L17.3008 11.5405L18.0129 11.8245L19.0809 9.836L19.7929 9.26785H20.1489V7.56338Z" fill="#43A5FF" stroke="white" stroke-linecap="round" stroke-linejoin="round"/>
</svg>
