<svg width="36" height="32" viewBox="0 0 36 32" fill="none" xmlns="http://www.w3.org/2000/svg">
<path id="Ohio (OH)" opacity="0.48" fill-rule="evenodd" clip-rule="evenodd" d="M1.46289 7.34928L4.667 27.8029L5.37903 27.2347L6.44707 27.8029L7.15909 27.2347L7.87112 27.8029H8.58314L9.65118 29.5073L10.7192 29.7914L12.4993 29.5073L13.5673 30.3595L14.2793 30.6436L14.9914 29.7914H16.4154L17.1274 30.3595L17.4835 30.0755H18.5515L18.9075 29.5073L20.3316 28.6551L21.0436 30.0755L22.4676 30.3595L23.1797 31.2118L23.8917 30.9277L25.3157 30.3595V29.5073L26.0278 29.2232L25.6717 27.8029V27.2347L26.0278 26.3825L26.7398 25.8143L27.4518 26.0984V26.6665H27.8078L28.5198 26.0984V25.5302L28.1638 25.2462L28.5198 24.678L28.8759 23.5417L29.5879 23.2576V22.6895L30.6559 22.1213L31.3679 22.6895L32.792 21.5532V20.7009L34.5721 19.8487V18.7124L34.9281 17.0079V15.5875L35.2841 14.4512L34.9281 13.599L35.2841 12.7468L34.216 12.1786L35.2841 11.6104L33.148 1.09958L27.4518 3.94035L24.9597 6.21297L23.8917 6.49705H22.4676L21.0436 7.0652L19.9755 7.34928L19.6195 7.91744L17.4835 7.63336H16.7714L16.0594 7.91744L14.9914 7.63336L17.1274 6.78113H16.4154L15.7034 7.0652L13.9233 6.49705L12.1433 6.21297L11.4312 5.92889L1.46289 7.34928Z" fill="#43A5FF" stroke="white" stroke-linecap="round" stroke-linejoin="round"/>
</svg>
