<svg width="72" height="29" viewBox="0 0 72 29" fill="none" xmlns="http://www.w3.org/2000/svg">
<path id="Oklahoma (OK)" opacity="0.2" fill-rule="evenodd" clip-rule="evenodd" d="M0.550293 1.52904C0.550293 1.52904 22.4922 2.00456 33.4632 1.95824C44.921 1.90987 67.8367 1.24496 67.8367 1.24496L68.1927 5.50613L69.9727 13.7444L70.6848 27.9482L68.5487 27.6642L67.4806 27.096L66.4126 26.2438L65.3446 25.9597L64.2765 25.6756L62.8525 26.2438L61.4284 25.9597L59.2924 26.5279H58.5803L56.8003 26.8119L56.4443 27.6642H55.7322L54.6642 27.3801L53.5962 27.096L52.8841 26.5279L51.8161 26.8119L50.036 25.9597L48.612 27.9482L47.9 26.5279L46.4759 27.096L45.4079 26.5279H44.6958L44.3398 25.6756L42.2038 27.096L41.4917 25.9597L40.4237 25.6756V24.8234H38.2876L37.2196 25.3915L36.1515 24.5393L35.0835 24.8234L32.9474 24.2552H31.1674V23.403L29.7433 22.2667L29.3873 22.8348H28.6753L27.6072 23.1189L26.5392 22.2667L25.4712 21.4145H24.4031V6.07428L0.550293 5.7902V1.52904Z" fill="#43A5FF" stroke="white" stroke-linecap="round" stroke-linejoin="round"/>
</svg>
