<svg width="66" height="41" viewBox="0 0 66 41" fill="none" xmlns="http://www.w3.org/2000/svg">
<path id="Oregon (OR)" opacity="0.1" fill-rule="evenodd" clip-rule="evenodd" d="M55.5265 40.3722L58.3746 26.1683L59.0867 25.032V24.1798L59.7987 23.6116L59.0867 23.0434L57.6626 22.7594L58.0186 21.0549L59.7987 19.3504L61.2227 18.2141L61.5788 17.3619L63.0028 15.6574L63.3588 15.0893L65.1389 13.3848L64.7829 11.9644L62.6468 10.544V9.69181L47.6943 7.70326L46.6262 8.27142L43.4221 7.70326L42.3541 7.98734L39.15 8.27142L37.3699 8.5555L35.5899 8.27142L33.0978 8.5555L32.7418 8.27142L31.3177 8.5555L30.9617 7.70326L29.1816 7.13511L27.0456 6.85103L23.4854 7.70326L22.4174 7.13511L19.9253 6.56695V5.9988L20.2813 4.01026L19.5693 2.58987L18.5013 1.73764L17.4332 2.02172H16.3652L16.0092 1.16948L14.5851 1.45356L13.8731 1.16948L13.5171 1.73764L12.449 0.885406V2.30579L11.737 2.87395V4.01026L12.093 4.57841L11.381 5.14657L11.737 6.28288H11.025L8.88892 11.1122L8.5329 11.9644L8.88892 12.5326L8.5329 13.1007L8.17689 13.6689V14.237L7.46486 14.8052L6.75284 17.3619L6.04082 18.7823L6.39683 19.3504L5.6848 19.6345L4.61677 21.0549H5.32879V21.9071L4.61677 21.6231L3.90474 22.4753L3.54873 21.9071L2.48069 23.8957L1.41265 25.6001L1.76867 26.7365L1.41265 28.4409L1.05664 30.1454V31.2817L1.76867 32.418L33.0978 37.5314L55.5265 40.3722Z" fill="#43A5FF" stroke="white" stroke-linecap="round" stroke-linejoin="round"/>
</svg>
