<svg width="49" height="26" viewBox="0 0 49 26" fill="none" xmlns="http://www.w3.org/2000/svg">
<path id="Pennsylvania (PA)" opacity="0.8" fill-rule="evenodd" clip-rule="evenodd" d="M1.14844 7.09956L3.28451 17.6104L5.06457 24.7124L41.3778 19.0308L41.7339 18.1786L42.4459 17.6104H44.2259L44.582 17.0423L45.65 16.4741V15.906L48.1421 14.2015V13.6333L46.006 12.497H45.294L44.938 11.3607L43.8699 11.6448L43.5139 10.5085L43.8699 9.65625L44.2259 9.0881L43.5139 8.51994V7.95179L44.2259 7.38363L44.938 6.24732V5.67917L46.006 4.82694L45.294 4.25878H44.2259H43.1579L42.4459 3.40655V2.8384V1.98616L41.3778 1.41801L40.6658 1.70209L40.3098 1.13393L39.2418 0.849854L6.84464 6.24732L6.48863 4.25878L1.14844 7.09956Z" fill="#43A5FF" stroke="white" stroke-linecap="round" stroke-linejoin="round"/>
</svg>
