<svg width="48" height="19" viewBox="0 0 48 19" fill="none" xmlns="http://www.w3.org/2000/svg">
<path id="Puerto Rico" d="M46.0898 0.887372L46.4109 1.07848L46.3693 1.11039L46.1785 1.14698L46.3363 1.21457L46.16 1.27622L45.9994 1.2888L45.8748 1.24648L45.7745 1.15053L45.6525 1.18598L45.922 1.37915L46.0051 1.48676V1.64916L45.6267 1.41929L44.6579 1.09209L44.6379 1.03719L45.0621 0.914819L45.5924 0.847458L46.0898 0.887372ZM47 3.6882L46.8981 3.7798L46.4252 3.89188L46.3247 3.95924L46.0798 4.23601L46.0239 4.34351L45.9019 4.38011L45.6987 4.30817L45.462 4.427L45.1881 4.634L43.9427 5.28017L43.7175 5.47013L43.3178 5.48145L42.8002 5.68846L42.27 5.77309L41.8169 5.44486L42.0864 5.3568L42.1726 5.34422L42.5064 5.21956L42.8074 5.0161L43.0497 4.77593L43.2217 4.54148L43.3563 4.427L44.6579 3.84831L44.8928 3.81514L45.5666 3.80256L46.4967 3.56354L46.7577 3.57051L47 3.6882ZM14.4837 6.91229L16.4359 6.70872L18.1573 6.02012L18.4139 5.97677L19.1492 5.9778L19.41 5.91387L20.0378 5.6084L20.9923 5.26542L21.474 5.17267L21.9886 5.18422L22.2566 5.05727L23.376 4.75523L24.1355 4.72435L25.5088 4.07372L27.0138 4.01883L27.7217 3.60482L28.7452 3.57726L28.8857 3.41143L29.1251 3.37483L29.3057 3.46747L29.4003 3.52923L29.5737 3.53735L29.7083 3.41497L29.7787 3.23187L29.9694 3.22284L30.0023 3.43659L30.4006 3.48245L30.5168 3.60482L30.7116 3.75453L30.9769 3.6882L31.4885 3.39096L31.4372 3.28563L31.136 3.33023L30.7675 3.29935L30.4292 3.16897L30.1327 3.05575L31.4055 3.01927L31.705 2.98256L31.9301 2.97123L32.2296 2.94367L32.4332 2.77567L32.5047 2.54694L32.9262 2.50451L33.8004 2.45647L34.0112 2.23929L34.2277 2.2107L34.5029 2.27578L35.1006 2.21173L35.4675 2.25873L35.9004 2.43371L36.058 2.31134L36.1224 2.12824H36.2385L36.2888 2.19229L36.2385 2.30665L36.2186 2.43371L36.339 2.37081L36.495 2.25519L36.5767 2.17067L37.0255 2.43131L37.3738 2.4702L37.5386 2.27006L38.1405 2.43371L38.7711 2.32278L38.9962 2.06203L39.0909 1.91792L39.197 1.8023L39.3475 1.78983L39.4034 1.88361L39.5582 2.6533L39.7932 3.26401L39.9495 3.41497L39.9508 3.61512L40.1272 3.68019L40.2863 3.6882L40.4855 3.52465L40.4954 3.67115L40.5986 3.76025L40.9069 3.93179L40.7679 4.08505L40.8023 4.21554L40.6518 4.27272L40.3881 4.10906L40.1947 4.16396V4.33093L40.4583 4.47172L40.3363 4.62954L40.12 4.66385L39.7745 4.62371L39.505 4.79652L39.2473 5.00455L38.932 5.17267L38.6968 5.3568L38.4961 5.67816L38.2239 6.61494L38.3515 7.01282L38.2239 7.33315L38.1537 7.40521L37.7896 7.59162L37.7351 7.70484L38.1006 8.08099L37.8799 8.42295L37.3682 8.93314L36.5769 9.44206L36.1814 9.54271L35.7613 9.5952L35.3887 9.66622L35.191 9.76801L34.7523 10.0711L34.6376 10.119L34.0987 10.2552L33.7706 10.4313L32.945 11.1563L32.7271 11.2319L32.5437 11.2798L32.376 11.3359L32.267 11.4479L32.1509 11.3805L32.1151 11.3543L32.0721 11.2878L32.2427 11.186L32.2569 11.0968L32.1466 11.0305L31.9345 10.987L31.7052 11.3278L31.5332 11.4285L31.2594 11.4434L30.7621 11.5417L30.58 11.5566L30.4539 11.4961L30.3448 11.4193L30.2188 11.3576L29.9551 11.3278L29.7917 11.3473L29.5165 11.4434L29.138 11.6253L28.764 12.0392L28.3941 12.1114L27.9641 11.9923L27.5643 11.8037L27.1988 11.7397L26.8993 11.8871L26.6626 11.9797L26.5093 12.1114L26.2729 12.2223L25.7111 12.4087L25.5591 12.5357L25.4287 12.6762L25.2338 12.7666L24.9084 12.7404L24.8109 12.833L24.7006 12.9051L24.5098 12.7711L24.2061 12.8443L23.5295 13.1212L23.3803 13.1245L22.7901 13.1098L22.0733 13.3087L21.9972 13.1062L21.8167 13.0845L21.6016 13.2L21.428 13.3716L21.474 13.4734L21.7177 13.4047L21.6073 13.6805L21.3248 13.9309L20.9666 14.1334L20.6241 14.2809L20.0666 14.4181L19.8185 14.5129L19.6164 14.5531L19.5261 14.5851L19.4804 14.6583L19.4948 14.7691L19.5478 14.9144L19.2065 14.9738L18.8999 14.8984L18.3581 14.6685L17.9926 14.7485L17.5841 14.8103L17.1583 14.9271L16.8818 14.9339L16.7127 15.1671L16.4819 15.3708L16.2397 15.4885L16.0217 15.5228L15.3969 15.6394L14.9425 15.5731L14.8034 15.7412L15.0671 16.0478L14.8767 16.0867L14.4896 15.8443L14.342 15.7378L14.17 15.3262L14.5211 15.055L14.6215 14.9738L14.772 14.8927L14.8767 14.8011L14.8909 14.6742L14.7863 14.6113L14.5871 14.5851L14.3649 14.6823L14.1112 14.6629L14.0051 14.393L14.061 14.2202L14.1929 14.0762L14.0567 13.948L13.8848 13.7272L14.0051 13.5295L13.7873 13.0536L13.7429 12.4773L13.8273 12.324L13.9277 12.173L13.9534 11.9833L13.7687 11.8551L13.482 11.7601L12.9001 11.1369L12.6262 10.9128L12.202 10.9607L11.8638 10.9802L11.4065 10.6223L11.1355 10.4587L10.8906 10.2357L10.8775 10.1304L11.3234 9.87437L11.6673 9.62734L11.9469 9.42937L12.1418 9.23838L12.457 8.84725L12.3439 8.51341L12.0429 8.3167L11.8638 7.95405L12.0386 7.52643L12.8225 7.0963L13.7615 6.86643L14.4837 6.91229ZM2.26327 17.5712L2.11134 17.6317L1.9392 17.6627L1.84188 17.6431L1.67561 17.5403L1.08509 17.4499L0.884277 17.2876L0.910077 17.0416L1.07792 16.8976L2.08124 16.6093L2.19447 16.6025L2.4539 16.6985L2.50837 16.7968L2.44387 16.9192L2.37937 17.228L2.32634 17.3103L2.29624 17.3881L2.32634 17.515L2.26327 17.5712Z" fill="#43A5FF" stroke="white" stroke-linecap="round" stroke-linejoin="round"/>
</svg>
