<svg width="43" height="26" viewBox="0 0 43 26" fill="none" xmlns="http://www.w3.org/2000/svg">
<path id="South Carolina (SC)" opacity="0.19" fill-rule="evenodd" clip-rule="evenodd" d="M5.74041 3.63093L3.24832 4.48316L2.5363 5.33539L1.46826 7.03986L3.24832 7.60801L3.60434 7.89209L4.67237 8.46025L6.09642 8.17617V9.0284L7.16446 9.59656L7.52047 10.4488L7.87649 10.7329L8.94452 11.301L9.30054 12.1533H10.0126L10.3686 12.7214L12.1486 13.2896L13.2167 14.7099H14.2847L15.3527 15.5622V16.1303L16.4208 16.4144V16.9826L17.1328 17.2666V17.8348H18.2008L19.9809 18.687V19.2552L20.6929 20.1074L21.0489 21.2437L21.405 21.8119H22.473L22.829 22.38L23.897 23.5163V24.6527L24.6091 25.5049L24.9651 25.2208H25.6771H26.3891L26.7451 24.3686V23.5163L27.4572 24.0845L26.3891 22.6641L25.6771 21.5278L26.0331 21.2437L27.1012 22.6641L27.8132 22.9482L27.4572 21.8119L28.1692 22.38L28.5252 23.2323L29.2372 22.6641L28.8812 21.8119L28.1692 21.5278L27.4572 21.2437L28.8812 20.9597L29.9493 21.2437L30.6613 20.6756V20.1074H31.7293L32.7974 19.5393L33.5094 18.9711L32.7974 18.403V17.8348H33.5094L33.8654 18.403L34.5774 17.8348L35.2894 17.2666V16.1303L36.0015 15.8463L36.7135 16.1303L37.4255 15.2781L37.0695 14.7099L38.4936 14.1418L37.4255 13.8577V13.0055L38.1375 12.1533V13.5736L39.2056 11.0169L40.2736 9.59656L42.0537 8.17617L31.7293 2.21054L22.473 3.34685L22.117 2.21054L20.6929 1.35831L19.9809 1.92647L19.6249 1.07423L8.94452 2.21054L7.52047 2.7787L6.45244 3.06278L6.09642 3.63093H5.74041Z" fill="#43A5FF" stroke="white" stroke-linecap="round" stroke-linejoin="round"/>
</svg>
