<svg width="58" height="29" viewBox="0 0 58 29" fill="none" xmlns="http://www.w3.org/2000/svg">
<path id="South Dakota (SD)" opacity="0.5" fill-rule="evenodd" clip-rule="evenodd" d="M16.611 24.592C11.2402 24.5187 0.498535 24.0881 0.498535 24.0881L0.854548 8.46384H1.21056L1.56657 1.36191C1.56657 1.36191 21.4005 1.64599 31.4716 1.64599C39.4385 1.64599 55.6805 1.36191 55.6805 1.36191L55.3245 2.21414L54.6124 3.06637L53.5444 3.63453L54.6124 5.33899L56.0365 5.62307L56.7485 6.4753L57.1045 20.3951H56.0365V20.9632L56.7485 21.5314L56.3925 22.3836L57.1045 22.9518L56.7485 25.2244L56.0365 26.0766L57.1045 28.0652H56.3925L55.6805 27.213V26.6448H54.6124L54.2564 26.3607L53.1884 26.0766H52.1203L51.0523 25.2244L49.2722 25.5085H46.7802L46.0681 26.0766H45.0001L42.152 24.6563C42.152 24.6563 25.1247 24.7081 16.611 24.592Z" fill="#43A5FF" stroke="white" stroke-linecap="round" stroke-linejoin="round"/>
</svg>
