<svg width="69" height="22" viewBox="0 0 69 22" fill="none" xmlns="http://www.w3.org/2000/svg">
<path id="Tennessee (TN)" opacity="0.8" fill-rule="evenodd" clip-rule="evenodd" d="M0.506348 21.1647L49.2801 16.6195V14.6309L49.6361 14.3469L51.0601 14.6309L51.4161 12.9265L53.5522 11.5061H55.3323L57.8244 9.23346H59.2484L59.6044 7.81308H60.3164L60.6725 6.96084L61.7405 6.67677L62.0965 7.24492H62.8085L63.5206 5.82454L65.3006 5.54046L66.0126 5.82454L67.0807 3.83599L67.7927 3.26784H68.1487V1.2793L52.4842 3.26784L51.7721 3.83599L19.019 6.39269H16.8829L17.2389 7.24492V7.81308L6.20255 8.66531L5.84654 8.94939L5.13451 8.38123V8.94939L5.49052 10.0857H4.7785L5.13451 10.9379H4.42249L5.13451 11.7902L4.42249 12.0742L4.06647 12.9265L4.7785 13.2105L5.13451 13.4946H4.06647V14.0628L4.42249 14.3469L2.64242 15.1991L2.99844 16.3354V16.9036H2.28641L1.9304 18.0399L1.57439 18.8921L2.28641 20.0284H1.21837L0.506348 21.1647Z" fill="#43A5FF" stroke="white" stroke-linecap="round" stroke-linejoin="round"/>
</svg>
