<svg width="114" height="87" viewBox="0 0 114 87" fill="none" xmlns="http://www.w3.org/2000/svg">
<path id="Texas (TX)" opacity="0.8" fill-rule="evenodd" clip-rule="evenodd" d="M32.8381 0.790207L57.4029 1.07428V16.4145H58.471L60.607 18.1189L61.6751 17.8349H62.3871L62.7431 17.2667L64.1672 18.403V19.2552H65.9472L68.0833 19.8234L69.1513 19.5393L70.2194 20.3915L71.2874 19.8234H73.4235V20.6756L74.4915 20.9597L75.2036 22.096L77.3396 20.6756L77.6956 21.5279H78.4077L79.4757 22.096L80.8997 21.5279L81.6118 22.9482L83.0358 20.9597L84.8159 21.8119L85.8839 21.5279L86.596 22.096L88.732 22.6642H89.4441L89.8001 21.8119L91.5801 21.5279H92.2922L94.4282 20.9597L95.8523 21.2438L97.2763 20.6756L99.4124 21.2438L100.48 22.096L101.548 22.6642L103.685 22.9482L105.109 23.5164L105.465 23.2323H107.245L107.601 23.5164V27.7776H107.957L108.313 36.0158L109.381 36.868L110.449 38.0043V39.1407L111.161 39.7088V39.9929L111.873 40.561V41.4133L112.585 41.9814L112.941 42.2655V43.1177L113.297 43.4018L112.941 43.6859V45.3904L112.585 46.2426L111.873 47.3789V48.2311L111.517 48.7993L112.229 49.9356L111.873 51.0719L111.161 51.6401L110.449 52.7764L110.093 53.3445L110.805 54.1968H109.381L106.177 55.6171H104.753L102.973 55.9012L103.685 55.049L104.041 54.1968L103.329 53.9127L102.617 54.1968L101.904 54.7649L100.48 54.4808L100.836 55.6171L101.548 56.4694L102.261 57.0375L101.904 57.6057L100.48 58.742L99.7684 58.4579L100.124 59.8783L97.9883 61.2987L95.8523 62.435L93.3602 62.7191L93.0042 63.2872H91.2241V62.7191L90.1561 63.2872L89.4441 62.7191L88.732 62.1509L89.088 63.5713L88.02 63.2872L87.308 62.7191L86.952 63.0032L87.664 64.1395L88.376 64.4235L87.664 64.9917L89.088 64.7076V65.2758L87.308 66.128L85.8839 64.7076L85.5279 65.5599V66.9802L85.1719 67.5484L84.8159 66.4121L82.6798 67.5484L82.3238 68.1166L83.0358 68.6847L84.1039 68.1166L82.6798 69.821L79.8317 69.5369L79.4757 70.1051L80.5437 70.3892L81.9678 71.2414L80.5437 74.0822L79.8317 73.514L78.7637 74.0822L77.3396 72.9459L77.6956 74.0822L77.3396 74.3663L77.6956 74.6503L79.4757 74.9344L80.1877 74.6503L79.8317 76.6389L79.4757 76.923V78.6274H80.1877L80.5437 80.3319L80.1877 80.9L81.2558 82.3204L81.9678 83.7408L82.6798 84.0249L82.3238 85.1612L81.6118 85.7294L80.1877 85.4453L78.7637 84.309H73.7795L71.9994 83.1727L69.8634 82.8886L68.4393 81.7523H65.9472V80.9L65.2352 80.616L64.5232 78.3433L63.4551 77.207L62.7431 76.6389V75.2185L62.0311 74.3663L62.3871 73.7981V72.9459L62.0311 72.0936L60.607 71.5255L58.827 70.3892L58.471 69.5369L57.0469 67.8325L55.9789 67.2643L55.2669 66.4121L54.5548 64.4235L53.4868 63.2872L53.1308 62.435L52.0627 61.2987V59.8783L50.9947 59.3102V58.742L48.5026 57.6057V57.0375L47.0786 56.7535V55.9012H46.3665L45.2985 54.4808H42.8064L40.6703 54.1968H38.8903L37.4662 53.6286L36.7542 54.4808L34.2621 54.7649L32.8381 56.4694L32.4821 57.8898L31.77 58.742L29.99 60.1624V60.7305L27.8539 60.1624L26.7859 59.3102H25.3618L24.2938 58.1738L22.5137 57.8898L20.3776 56.1853L19.3096 55.9012L18.2416 55.049L17.8855 53.9127L17.1735 52.7764L16.8175 51.9241L17.1735 51.0719L15.7495 49.0834V48.2311L14.6814 46.8107L12.9014 45.6744L11.4773 45.3904L9.69725 43.6859V43.1177L8.2732 42.2655L6.84915 41.1292L5.78112 40.561L4.71308 39.9929L3.64504 39.1407V38.0043L2.93302 37.7203L2.22099 37.4362L1.15295 36.584V35.7317L31.414 36.868L32.8381 0.790207Z" fill="#43A5FF" stroke="white" stroke-linecap="round" stroke-linejoin="round"/>
</svg>
