<svg width="16" height="22" viewBox="0 0 16 22" fill="none" xmlns="http://www.w3.org/2000/svg">
<path opacity="0.48" fill-rule="evenodd" clip-rule="evenodd" d="M1.43018 4.28291L14.2466 1.44214L14.6026 1.72622L14.9587 2.29437L14.2466 3.43068L15.3147 4.56699L14.9587 4.85107V5.41922L13.8906 6.83961L13.5346 7.12369H12.8226L12.4666 7.69184L12.8226 8.54407V9.39631V10.5326L12.4666 10.8167V11.953L12.1106 12.5212V13.3734L11.7545 13.6575L12.1106 15.3619L12.4666 15.646L12.1106 16.7823L12.4666 17.3505V18.2027L12.1106 18.4868V19.339L13.5346 20.1912L7.48239 21.0435L7.12638 20.7594L5.70233 15.646V15.0779L4.9903 14.5097L4.27828 15.0779V13.3734L3.92226 13.0893V12.8052L3.56625 12.5212L3.21024 11.6689H2.85423V10.2485L3.21024 9.68038L2.49821 8.82815L2.1422 7.69184L1.78619 7.12369V5.7033L1.43018 5.41922V4.28291Z" fill="#43A5FF" stroke="white" stroke-linecap="round" stroke-linejoin="round"/>
</svg>
