<svg width="65" height="30" viewBox="0 0 65 30" fill="none" xmlns="http://www.w3.org/2000/svg">
<path id="Virginia (VA)" fill-rule="evenodd" clip-rule="evenodd" d="M62.006 21.0296V20.4615H62.362V19.0411L61.65 18.1889H59.1579L59.5139 19.0411L58.4459 18.757L57.7339 19.3252V18.4729L55.9538 17.9048V17.0525H54.8858H53.8177L53.1057 16.4844L50.6136 16.7685V16.2003L53.4617 15.9162L53.8177 16.4844L54.1737 15.6322L54.5297 16.4844H55.9538H56.3098V17.0525L58.4459 17.9048L59.1579 17.3366L58.4459 17.0525V16.4844L57.7339 16.2003H56.6658L54.1737 14.4958V13.9277L56.6658 15.6322H57.7339L57.0218 15.064L57.3778 14.2118L58.8019 15.064L58.4459 14.2118L57.3778 13.6436L55.9538 13.3595L55.2418 12.5073L54.1737 12.2232L52.7497 11.371L51.6816 10.2347H50.9696L49.9016 9.95061L50.2576 9.66653H51.6816L54.1737 11.6551H54.8858L56.3098 12.7914V12.2232L57.3778 12.7914V11.6551L57.0218 11.0869L57.7339 10.8028L56.6658 10.5188L55.2418 10.2347L54.8858 9.66653L53.8177 9.38245L53.1057 9.66653L51.6816 9.38245L50.6136 8.53022V7.96206L49.5456 8.8143H48.1215V8.24614V7.96206V6.2576L48.8335 5.68945L49.5456 5.40537V4.55313L49.1896 3.98498L48.8335 3.7009H47.7655L47.4095 3.13275H45.9854L45.2734 2.56459L45.6294 1.71236L44.5614 1.42828H43.1373L42.7813 3.13275L38.5092 1.42828L38.1532 1.71236L38.5092 2.28052L38.1532 2.84867V3.7009L37.4411 4.55313V5.12129L36.7291 5.68945V5.97352H36.0171L35.6611 7.10983L34.593 6.82575L34.237 7.10983L33.881 7.67799V8.53022L33.525 8.8143V9.66653L32.813 10.2347H31.3889L30.6769 9.66653H29.9649L29.6089 9.95061V11.0869L28.8968 11.9391L29.2529 12.2232L28.1848 13.0755L28.5408 13.3595L28.1848 14.4958L26.7608 16.2003L26.4048 17.0525V17.6207H27.1168V17.9048L26.4048 18.4729L26.7608 18.757L25.3367 19.6092L24.9807 19.3252L23.5567 20.1774L22.8446 19.8933L22.1326 20.1774L22.4886 20.7455L22.1326 21.3137H20.7086L19.9965 21.8819L18.5725 21.3137L18.2165 21.8819L17.1484 22.7341L16.0804 22.45L15.7244 22.1659H14.6563L14.3003 21.5978H13.9443V21.0296H13.5883V20.4615H13.2323L10.7402 23.0182L8.24812 24.1545V25.0067L7.5361 25.5749V26.143L5.75604 26.7112L5.40002 27.5634L1.48389 29.2679L17.1484 27.2793V27.5634L62.006 21.0296ZM62.362 9.09837V9.66653L62.006 9.95061L62.362 10.5188L61.65 11.371L61.294 12.2232V13.3595L60.938 14.4958L61.294 15.6322L61.65 15.9162L62.006 15.064V13.3595L62.362 12.5073L63.4301 12.7914V11.0869L64.1421 9.95061L63.7861 9.38245V8.53022L62.362 9.09837Z" fill="#43A5FF" stroke="white" stroke-linecap="round" stroke-linejoin="round"/>
</svg>
