<svg width="57" height="31" viewBox="0 0 57 31" fill="none" xmlns="http://www.w3.org/2000/svg">
<path opacity="0.2" fill-rule="evenodd" clip-rule="evenodd" d="M52.2911 29.6918V28.8396L52.6471 28.5555V27.9873L51.9351 26.851L55.8513 7.24968C55.8513 7.24968 35.6827 4.4614 25.5984 2.92522C22.6289 2.47286 16.6899 1.28406 16.6899 1.28406L16.3339 1.85221L16.6899 3.2726H17.7579V4.40891L17.4019 5.54522H16.6899L16.3339 4.97706L15.9779 4.40891L14.9098 3.2726L14.1978 3.55668L14.9098 3.84075L15.6218 4.40891L14.9098 4.69299L13.8418 4.12483L12.7737 3.84075L13.1298 4.69299L14.9098 5.26114L15.6218 4.69299L16.3339 5.54522L15.2658 6.68153L15.6218 7.53376L16.3339 9.23822L17.0459 9.5223L16.6899 8.67007L15.9779 7.24968L16.3339 6.39745H17.0459L17.7579 6.68153V7.81784V8.67007L18.4699 8.95415L17.7579 9.80638L16.6899 10.6586V11.5108V12.3631L16.3339 13.7835L15.6218 14.6357L14.9098 14.3516L13.8418 15.2038L13.4858 15.4879L12.4177 15.2038L11.7057 15.4879L10.6377 15.2038L11.3497 14.3516L12.4177 13.4994L13.1298 13.7835L13.8418 13.2153L14.5538 14.0675L14.9098 12.3631L14.1978 12.079L14.5538 10.9427C14.1771 10.9427 15.6218 10.9427 15.6218 10.9427L15.9779 10.0905L13.4858 11.2268L12.7737 11.5108L11.3497 12.3631L12.0617 12.9312H12.7737L12.0617 13.2153H10.2817L10.6377 12.6472L12.0617 11.5108L13.1298 10.6586V9.80638H13.8418V10.3745L14.9098 9.5223L14.1978 7.81784V8.67007L13.1298 7.81784L12.7737 8.10191L11.7057 7.24968H10.6377L6.72154 6.11337L5.29749 5.54522L4.58546 4.97706L2.09337 3.84075L1.38135 5.26114V6.96561L2.44939 8.10191L2.8054 9.23822L2.44939 11.5108L3.16141 12.3631L2.8054 14.0675H3.87344V14.6357L5.29749 15.2038L3.51742 15.4879L3.16141 16.0561L2.8054 15.772V16.6242H4.22945L4.94147 17.4765H3.87344L3.51742 18.6128L3.87344 19.465H2.8054L2.44939 18.8969L2.09337 20.0332H2.8054L3.51742 20.3172H4.94147L5.29749 20.6013H6.36552L6.72154 21.4536L7.43356 21.7376H8.5016L9.56964 22.5899L10.2817 24.0102L9.92565 25.9988V26.5669L12.4177 27.1351L13.4858 27.7033L15.9779 27.1351L17.0459 26.851L19.182 27.1351L20.962 27.7033L21.318 28.5555L22.7421 28.2714L23.0981 28.5555L25.5902 28.2714L27.3703 28.5555L29.1503 28.2714L32.3544 27.9873L33.4225 27.7033L36.6266 28.2714L37.6946 27.7033L52.2911 29.6918Z" fill="#43A5FF" stroke="white" stroke-linecap="round" stroke-linejoin="round"/>
</svg>
