<svg width="38" height="30" viewBox="0 0 38 30" fill="none" xmlns="http://www.w3.org/2000/svg">
<path id="West Virginia (WV)" fill-rule="evenodd" clip-rule="evenodd" d="M7.23239 26.1774V26.4615H7.5884V27.0296H7.94441V27.5978H8.30043L8.65644 28.166H9.72447L10.0805 28.45L11.1485 28.7341L12.2166 27.8819L12.5726 27.3137L13.9966 27.8819L14.7086 27.3137H16.1327L16.4887 26.7456L16.1327 26.1774L16.8447 25.8933L17.5567 26.1774L18.9808 25.3252L19.3368 25.6093L20.7609 24.757L20.4048 24.4729L21.1169 23.9048V23.6207H20.4048V23.0526L20.7609 22.2003L22.1849 20.4959L22.5409 19.3596L22.1849 19.0755L23.2529 18.2232L22.8969 17.9392L23.609 17.0869V15.9506L23.965 15.6665H24.677L25.389 16.2347H26.8131L27.5251 15.6665V14.8143L27.8811 14.5302V13.678L28.2371 13.1098L28.5931 12.8258L29.6612 13.1098L30.0172 11.9735H30.7292V11.6895L31.4412 11.1213V10.5532L32.1533 9.70092V8.84869L32.5093 8.28053L32.1533 7.71238L32.5093 7.4283L36.7814 9.13276L37.1374 7.4283V6.86015L36.4254 6.57607L36.0694 6.00791H35.7134L36.0694 5.43976L34.6453 5.72384L33.2213 5.15568L32.8653 5.43976L32.5093 6.00791H31.4412L31.0852 6.86015L30.3732 7.14422H29.3052L28.5931 6.29199V7.14422L27.5251 7.99646H26.4571L26.101 8.56461L25.389 9.41684L23.965 10.5532L22.8969 6.57607L15.0647 7.71238L13.2846 0.610443L12.2166 1.1786L13.2846 1.74675L12.9286 2.59898L13.2846 3.45122L12.9286 4.58753V6.00791L12.5726 7.71238V8.84869L10.7925 9.70092V10.5532L9.36846 11.6895L8.65644 11.1213L7.5884 11.6895V12.2576L6.87638 12.5417L6.52036 13.678L6.16435 14.2462L6.52036 14.5302V15.0984L5.80834 15.6665H5.45233V15.0984L4.7403 14.8143L4.02828 15.3825L3.67226 16.2347V16.8029L4.02828 18.2232L3.31625 18.5073V19.3596L1.18018 20.2118L1.53619 21.064L1.18018 22.2003L2.60423 23.3366L2.96024 23.9048L4.38429 25.3252L6.16435 26.1774H7.23239Z" fill="#43A5FF" stroke="white" stroke-linecap="round" stroke-linejoin="round"/>
</svg>
