<svg width="46" height="36" viewBox="0 0 46 36" fill="none" xmlns="http://www.w3.org/2000/svg">
<path fill-rule="evenodd" clip-rule="evenodd" d="M6.00951 2.69182L5.6535 3.54405H4.94147L5.29749 6.38482V8.08929L2.44939 9.50968L2.09337 10.3619L1.38135 11.2141V12.0664L2.44939 12.3504L3.16141 13.2027L2.8054 14.339L2.44939 15.1912L2.8054 15.7594L2.44939 16.0435L2.8054 16.6116L2.44939 18.3161L4.22945 19.4524H5.6535L6.72154 20.3046L8.14559 20.5887L9.56964 21.725L10.6377 22.8613L11.7057 23.4295H13.1298L14.5538 24.5658L14.9098 25.418V27.6906H15.2658L15.6218 28.5429L16.6899 29.111L15.9779 29.9632L16.3339 31.9518L17.4019 33.6562H19.538L20.25 35.0766L41.6108 33.3722L41.2547 32.2359L41.6108 31.6677V30.8155L40.8987 30.5314L40.5427 29.3951L40.1867 27.6906V26.5543L40.5427 25.7021V24.8499L41.2547 23.7135L40.5427 23.1454L40.8987 21.4409L41.2547 20.5887L42.3228 20.0205L41.6108 19.1683V17.4638L42.6788 16.0435L42.3228 15.1912L43.3908 14.339L43.7468 12.9186L44.1028 11.7823L44.8149 10.9301H44.1028L43.7468 11.7823L43.0348 12.6345H42.6788V13.4868L41.9668 14.0549L42.3228 14.6231L41.9668 14.9071H41.6108L40.5427 15.1912L39.8307 16.3275L39.1187 16.8957L38.4066 17.7479L37.6946 17.4638V16.6116L38.4066 15.1912L39.1187 14.339L40.1867 13.7708V13.2027L39.1187 12.6345L39.8307 10.9301H39.4747L38.4066 11.2141H38.0506L38.7627 10.0778L38.0506 8.65744L36.9826 8.08929H35.9146V7.23706L34.8465 6.95298L32.3544 6.6689L30.9304 6.95298L29.5063 6.38482L24.8782 5.53259L20.962 4.96444L19.894 3.82813L18.826 3.54405L16.3339 2.9759L14.9098 3.54405V2.9759L15.6218 0.987355L14.9098 0.703278L13.1298 1.55551L12.0617 1.83959L9.56964 2.9759L7.43356 3.25997L6.00951 2.69182Z" fill="#43A5FF" stroke="white" stroke-linecap="round" stroke-linejoin="round"/>
</svg>
