<svg width="24" height="24" viewBox="0 0 26 26" fill="none" xmlns="http://www.w3.org/2000/svg">
<path d="M21.4167 5.38293H5.58338C5.58268 6.73265 5.92708 8.06012 6.58385 9.23927C7.24063 10.4184 8.18796 11.4101 9.33587 12.12C9.89031 12.4746 10.3454 12.9643 10.6584 13.5432C10.9714 14.1221 11.132 14.7711 11.125 15.4292V19.6012L15.875 18.8096V15.4133C15.8681 14.7553 16.0286 14.1063 16.3416 13.5274C16.6546 12.9485 17.1098 12.4587 17.6642 12.1042C18.8098 11.3956 19.7557 10.4065 20.4124 9.23033C21.069 8.05418 21.4147 6.72997 21.4167 5.38293Z" stroke="#909090" stroke-linecap="round" stroke-linejoin="round"/>
<rect x="0.5" y="0.5" width="25" height="25" rx="2.5" stroke="#F0F0F0"/>
</svg>
